<svg xmlns="http://www.w3.org/2000/svg" xmlns:xlink="http://www.w3.org/1999/xlink" width="1434" height="978" contentScriptType="application/ecmascript" contentStyleType="text/css" style="width:1434px;height:978px" preserveAspectRatio="none" version="1.1" viewBox="0 0 1434 978" zoomAndPan="magnify"><defs><filter id="f1855r83pwh5lj" width="300%" height="300%" x="-1" y="-1"><feGaussianBlur result="blurOut" stdDeviation="2"/><feColorMatrix in="blurOut" result="blurOut2" type="matrix" values="0 0 0 0 0 0 0 0 0 0 0 0 0 0 0 0 0 0 .4 0"/><feOffset dx="4" dy="4" in="blurOut2" result="blurOut3"/><feBlend in="SourceGraphic" in2="blurOut3" mode="normal"/></filter></defs><g><polygon fill="#FFF" points="14 738 36 738 43 760.297 106 760.297 106 805 14 805 14 738" filter="url(#f1855r83pwh5lj)" style="stroke:#000;stroke-width:1.5"/><line style="stroke:#000;stroke-width:1.5" x1="14" x2="43" y1="760.297" y2="760.297"/><text x="18" y="752.995" fill="#000" font-family="sans-serif" font-size="14" font-weight="bold" lengthAdjust="spacingAndGlyphs" textLength="16">th</text><polygon fill="#FFF" points="1182 738 1222 738 1229 760.297 1258 760.297 1258 805 1182 805 1182 738" filter="url(#f1855r83pwh5lj)" style="stroke:#000;stroke-width:1.5"/><line style="stroke:#000;stroke-width:1.5" x1="1182" x2="1229" y1="760.297" y2="760.297"/><text x="1186" y="752.995" fill="#000" font-family="sans-serif" font-size="14" font-weight="bold" lengthAdjust="spacingAndGlyphs" textLength="34">time</text><rect id="th.Thread" width="76" height="32" x="22" y="765" fill="#FEFECE" filter="url(#f1855r83pwh5lj)" style="stroke:#a80036;stroke-width:1.5"/><ellipse cx="37" cy="781" fill="#ADD1B2" rx="11" ry="11" style="stroke:#a80036;stroke-width:1"/><path d="M39.9688,786.6406 Q39.3906,786.9375 38.75,787.0781 Q38.1094,787.2344 37.4063,787.2344 Q34.9063,787.2344 33.5781,785.5938 Q32.2656,783.9375 32.2656,780.8125 Q32.2656,777.6875 33.5781,776.0313 Q34.9063,774.375 37.4063,774.375 Q38.1094,774.375 38.75,774.5313 Q39.4063,774.6875 39.9688,774.9844 L39.9688,777.7031 Q39.3438,777.125 38.75,776.8594 Q38.1563,776.5781 37.5313,776.5781 Q36.1875,776.5781 35.5,777.6563 Q34.8125,778.7188 34.8125,780.8125 Q34.8125,782.9063 35.5,783.9844 Q36.1875,785.0469 37.5313,785.0469 Q38.1563,785.0469 38.75,784.7813 Q39.3438,784.5 39.9688,783.9219 L39.9688,786.6406 Z"/><text x="51" y="785.154" fill="#000" font-family="sans-serif" font-size="12" lengthAdjust="spacingAndGlyphs" textLength="44">Thread</text><rect id="time.time" width="59" height="32" x="1190.5" y="765" fill="#FEFECE" filter="url(#f1855r83pwh5lj)" style="stroke:#a80036;stroke-width:1.5"/><ellipse cx="1205.5" cy="781" fill="#ADD1B2" rx="11" ry="11" style="stroke:#a80036;stroke-width:1"/><path d="M1208.4688,786.6406 Q1207.8906,786.9375 1207.25,787.0781 Q1206.6094,787.2344 1205.9063,787.2344 Q1203.4063,787.2344 1202.0781,785.5938 Q1200.7656,783.9375 1200.7656,780.8125 Q1200.7656,777.6875 1202.0781,776.0313 Q1203.4063,774.375 1205.9063,774.375 Q1206.6094,774.375 1207.25,774.5313 Q1207.9063,774.6875 1208.4688,774.9844 L1208.4688,777.7031 Q1207.8438,777.125 1207.25,776.8594 Q1206.6563,776.5781 1206.0313,776.5781 Q1204.6875,776.5781 1204,777.6563 Q1203.3125,778.7188 1203.3125,780.8125 Q1203.3125,782.9063 1204,783.9844 Q1204.6875,785.0469 1206.0313,785.0469 Q1206.6563,785.0469 1207.25,784.7813 Q1207.8438,784.5 1208.4688,783.9219 L1208.4688,786.6406 Z"/><text x="1219.5" y="785.154" fill="#000" font-family="sans-serif" font-size="12" lengthAdjust="spacingAndGlyphs" textLength="27">time</text><rect id="ExeThrd" width="82" height="112.023" x="133" y="725" fill="#FEFECE" filter="url(#f1855r83pwh5lj)" style="stroke:#a80036;stroke-width:1.5"/><ellipse cx="148" cy="741" fill="#ADD1B2" rx="11" ry="11" style="stroke:#a80036;stroke-width:1"/><path d="M150.9688,746.6406 Q150.3906,746.9375 149.75,747.0781 Q149.1094,747.2344 148.4063,747.2344 Q145.9063,747.2344 144.5781,745.5938 Q143.2656,743.9375 143.2656,740.8125 Q143.2656,737.6875 144.5781,736.0313 Q145.9063,734.375 148.4063,734.375 Q149.1094,734.375 149.75,734.5313 Q150.4063,734.6875 150.9688,734.9844 L150.9688,737.7031 Q150.3438,737.125 149.75,736.8594 Q149.1563,736.5781 148.5313,736.5781 Q147.1875,736.5781 146.5,737.6563 Q145.8125,738.7188 145.8125,740.8125 Q145.8125,742.9063 146.5,743.9844 Q147.1875,745.0469 148.5313,745.0469 Q149.1563,745.0469 149.75,744.7813 Q150.3438,744.5 150.9688,743.9219 L150.9688,746.6406 Z"/><text x="162" y="745.154" fill="#000" font-family="sans-serif" font-size="12" lengthAdjust="spacingAndGlyphs" textLength="50">ExeThrd</text><line style="stroke:#a80036;stroke-width:1.5" x1="134" x2="214" y1="757" y2="757"/><text x="139" y="771.21" fill="#000" font-family="sans-serif" font-size="11" lengthAdjust="spacingAndGlyphs" textLength="62">__exe_task</text><text x="139" y="784.015" fill="#000" font-family="sans-serif" font-size="11" lengthAdjust="spacingAndGlyphs" textLength="50">__kill_sig</text><line style="stroke:#a80036;stroke-width:1.5" x1="134" x2="214" y1="790.609" y2="790.609"/><text x="139" y="804.82" fill="#000" font-family="sans-serif" font-size="11" lengthAdjust="spacingAndGlyphs" textLength="49">__init__()</text><text x="139" y="817.625" fill="#000" font-family="sans-serif" font-size="11" lengthAdjust="spacingAndGlyphs" textLength="38">close()</text><text x="139" y="830.429" fill="#000" font-family="sans-serif" font-size="11" lengthAdjust="spacingAndGlyphs" textLength="27">run()</text><rect id="ExeTask" width="83" height="32" x="132.5" y="914" fill="#FEFECE" filter="url(#f1855r83pwh5lj)" style="stroke:#a80036;stroke-width:1.5"/><ellipse cx="147.5" cy="930" fill="#ADD1B2" rx="11" ry="11" style="stroke:#a80036;stroke-width:1"/><path d="M150.4688,935.6406 Q149.8906,935.9375 149.25,936.0781 Q148.6094,936.2344 147.9063,936.2344 Q145.4063,936.2344 144.0781,934.5938 Q142.7656,932.9375 142.7656,929.8125 Q142.7656,926.6875 144.0781,925.0313 Q145.4063,923.375 147.9063,923.375 Q148.6094,923.375 149.25,923.5313 Q149.9063,923.6875 150.4688,923.9844 L150.4688,926.7031 Q149.8438,926.125 149.25,925.8594 Q148.6563,925.5781 148.0313,925.5781 Q146.6875,925.5781 146,926.6563 Q145.3125,927.7188 145.3125,929.8125 Q145.3125,931.9063 146,932.9844 Q146.6875,934.0469 148.0313,934.0469 Q148.6563,934.0469 149.25,933.7813 Q149.8438,933.5 150.4688,932.9219 L150.4688,935.6406 Z"/><text x="161.5" y="934.154" fill="#000" font-family="sans-serif" font-size="12" lengthAdjust="spacingAndGlyphs" textLength="51">ExeTask</text><rect id="_exe_thrd_py" width="112" height="37.938" x="85" y="393.5" fill="#8FBC8F" filter="url(#f1855r83pwh5lj)" style="stroke:#a80036;stroke-width:1.5"/><ellipse cx="100" cy="412.469" fill="orchid" rx="11" ry="11" style="stroke:#a80036;stroke-width:1"/><path d="M95.7188,406.0781 L98.6406,406.0781 L100.1094,411.5156 L101.5781,406.0781 L104.5156,406.0781 L104.5156,418.4688 L102.4063,418.4688 L102.4063,408.5469 L101.0938,413.9688 L99.1563,413.9688 L97.8281,408.5469 L97.8281,418.4688 L95.7188,418.4688 L95.7188,406.0781 Z"/><text x="124" y="409.639" fill="#000" font-family="sans-serif" font-size="12" font-style="italic" lengthAdjust="spacingAndGlyphs" textLength="60">«module»</text><text x="114" y="423.607" fill="#000" font-family="sans-serif" font-size="12" lengthAdjust="spacingAndGlyphs" textLength="80">_exe_thrd_py</text><rect id="MODI" width="158" height="406.531" x="254" y="209" fill="#FEFECE" filter="url(#f1855r83pwh5lj)" style="stroke:#a80036;stroke-width:1.5"/><ellipse cx="313.25" cy="225" fill="#ADD1B2" rx="11" ry="11" style="stroke:#a80036;stroke-width:1"/><path d="M316.2188,230.6406 Q315.6406,230.9375 315,231.0781 Q314.3594,231.2344 313.6563,231.2344 Q311.1563,231.2344 309.8281,229.5938 Q308.5156,227.9375 308.5156,224.8125 Q308.5156,221.6875 309.8281,220.0313 Q311.1563,218.375 313.6563,218.375 Q314.3594,218.375 315,218.5313 Q315.6563,218.6875 316.2188,218.9844 L316.2188,221.7031 Q315.5938,221.125 315,220.8594 Q314.4063,220.5781 313.7813,220.5781 Q312.4375,220.5781 311.75,221.6563 Q311.0625,222.7188 311.0625,224.8125 Q311.0625,226.9063 311.75,227.9844 Q312.4375,229.0469 313.7813,229.0469 Q314.4063,229.0469 315,228.7813 Q315.5938,228.5 316.2188,227.9219 L316.2188,230.6406 Z"/><text x="333.75" y="229.154" fill="#000" font-family="sans-serif" font-size="12" lengthAdjust="spacingAndGlyphs" textLength="31">MODI</text><line style="stroke:#a80036;stroke-width:1.5" x1="255" x2="411" y1="241" y2="241"/><text x="260" y="255.21" fill="#000" font-family="sans-serif" font-size="11" lengthAdjust="spacingAndGlyphs" textLength="33">_conn</text><text x="260" y="268.015" fill="#000" font-family="sans-serif" font-size="11" lengthAdjust="spacingAndGlyphs" textLength="55">_exe_thrd</text><text x="260" y="280.82" fill="#000" font-family="sans-serif" font-size="11" lengthAdjust="spacingAndGlyphs" textLength="55">_modules</text><text x="260" y="293.625" fill="#000" font-family="sans-serif" font-size="11" lengthAdjust="spacingAndGlyphs" textLength="85">_topology_data</text><text x="260" y="306.429" fill="#000" font-family="sans-serif" font-size="11" lengthAdjust="spacingAndGlyphs" textLength="111">_topology_manager</text><text x="260" y="319.234" fill="#000" font-family="sans-serif" font-size="11" lengthAdjust="spacingAndGlyphs" textLength="43">buttons</text><text x="260" y="332.039" fill="#000" font-family="sans-serif" font-size="11" lengthAdjust="spacingAndGlyphs" textLength="27">dials</text><text x="260" y="344.843" fill="#000" font-family="sans-serif" font-size="11" lengthAdjust="spacingAndGlyphs" textLength="47">displays</text><text x="260" y="357.648" fill="#000" font-family="sans-serif" font-size="11" lengthAdjust="spacingAndGlyphs" textLength="27">envs</text><text x="260" y="370.453" fill="#000" font-family="sans-serif" font-size="11" lengthAdjust="spacingAndGlyphs" textLength="32">gyros</text><text x="260" y="383.257" fill="#000" font-family="sans-serif" font-size="11" lengthAdjust="spacingAndGlyphs" textLength="15">irs</text><text x="260" y="396.062" fill="#000" font-family="sans-serif" font-size="11" lengthAdjust="spacingAndGlyphs" textLength="24">leds</text><text x="260" y="408.867" fill="#000" font-family="sans-serif" font-size="11" lengthAdjust="spacingAndGlyphs" textLength="27">mics</text><text x="260" y="421.671" fill="#000" font-family="sans-serif" font-size="11" lengthAdjust="spacingAndGlyphs" textLength="49">modules</text><text x="260" y="434.476" fill="#000" font-family="sans-serif" font-size="11" lengthAdjust="spacingAndGlyphs" textLength="41">motors</text><text x="260" y="447.281" fill="#000" font-family="sans-serif" font-size="11" lengthAdjust="spacingAndGlyphs" textLength="52">networks</text><text x="260" y="460.085" fill="#000" font-family="sans-serif" font-size="11" lengthAdjust="spacingAndGlyphs" textLength="53">speakers</text><text x="260" y="472.89" fill="#000" font-family="sans-serif" font-size="11" lengthAdjust="spacingAndGlyphs" textLength="63">ultrasonics</text><line style="stroke:#a80036;stroke-width:1.5" x1="255" x2="411" y1="479.484" y2="479.484"/><text x="260" y="493.695" fill="#000" font-family="sans-serif" font-size="11" lengthAdjust="spacingAndGlyphs" textLength="49">__init__()</text><text x="260" y="506.5" fill="#000" font-family="sans-serif" font-size="11" lengthAdjust="spacingAndGlyphs" textLength="67">__init_task()</text><text x="260" y="519.304" fill="#000" font-family="sans-serif" font-size="11" lengthAdjust="spacingAndGlyphs" textLength="146">__wait_user_code_check()</text><text x="260" y="532.109" fill="#000" font-family="sans-serif" font-size="11" lengthAdjust="spacingAndGlyphs" textLength="38">close()</text><text x="260" y="544.914" fill="#000" font-family="sans-serif" font-size="11" lengthAdjust="spacingAndGlyphs" textLength="94">is_not_checked()</text><text x="260" y="557.718" fill="#000" font-family="sans-serif" font-size="11" lengthAdjust="spacingAndGlyphs" textLength="36">open()</text><text x="260" y="570.523" fill="#000" font-family="sans-serif" font-size="11" lengthAdjust="spacingAndGlyphs" textLength="119">print_topology_map()</text><text x="260" y="583.328" fill="#000" font-family="sans-serif" font-size="11" lengthAdjust="spacingAndGlyphs" textLength="32">recv()</text><text x="260" y="596.132" fill="#000" font-family="sans-serif" font-size="11" lengthAdjust="spacingAndGlyphs" textLength="36">send()</text><text x="260" y="608.937" fill="#000" font-family="sans-serif" font-size="11" lengthAdjust="spacingAndGlyphs" textLength="111">upload_user_code()</text><rect id="TopologyManager" width="143" height="32" x="283.5" y="765" fill="#FEFECE" filter="url(#f1855r83pwh5lj)" style="stroke:#a80036;stroke-width:1.5"/><ellipse cx="298.5" cy="781" fill="#ADD1B2" rx="11" ry="11" style="stroke:#a80036;stroke-width:1"/><path d="M301.4688,786.6406 Q300.8906,786.9375 300.25,787.0781 Q299.6094,787.2344 298.9063,787.2344 Q296.4063,787.2344 295.0781,785.5938 Q293.7656,783.9375 293.7656,780.8125 Q293.7656,777.6875 295.0781,776.0313 Q296.4063,774.375 298.9063,774.375 Q299.6094,774.375 300.25,774.5313 Q300.9063,774.6875 301.4688,774.9844 L301.4688,777.7031 Q300.8438,777.125 300.25,776.8594 Q299.6563,776.5781 299.0313,776.5781 Q297.6875,776.5781 297,777.6563 Q296.3125,778.7188 296.3125,780.8125 Q296.3125,782.9063 297,783.9844 Q297.6875,785.0469 299.0313,785.0469 Q299.6563,785.0469 300.25,784.7813 Q300.8438,784.5 301.4688,783.9219 L301.4688,786.6406 Z"/><text x="312.5" y="785.154" fill="#000" font-family="sans-serif" font-size="12" lengthAdjust="spacingAndGlyphs" textLength="111">TopologyManager</text><rect id="modi_py" width="167" height="92.352" x="453.5" y="8" fill="#8FBC8F" filter="url(#f1855r83pwh5lj)" style="stroke:#a80036;stroke-width:1.5"/><ellipse cx="504.75" cy="26.969" fill="orchid" rx="11" ry="11" style="stroke:#a80036;stroke-width:1"/><path d="M500.4688,20.5781 L503.3906,20.5781 L504.8594,26.0156 L506.3281,20.5781 L509.2656,20.5781 L509.2656,32.9688 L507.1563,32.9688 L507.1563,23.0469 L505.8438,28.4688 L503.9063,28.4688 L502.5781,23.0469 L502.5781,32.9688 L500.4688,32.9688 L500.4688,20.5781 Z"/><text x="523.25" y="24.139" fill="#000" font-family="sans-serif" font-size="12" font-style="italic" lengthAdjust="spacingAndGlyphs" textLength="60">«module»</text><text x="528.25" y="38.107" fill="#000" font-family="sans-serif" font-size="12" lengthAdjust="spacingAndGlyphs" textLength="50">modi_py</text><line style="stroke:#a80036;stroke-width:1.5" x1="454.5" x2="619.5" y1="45.938" y2="45.938"/><line style="stroke:#a80036;stroke-width:1" x1="454.5" x2="619.5" y1="53.938" y2="53.938"/><text x="459.5" y="68.148" fill="#000" font-family="sans-serif" font-size="11" lengthAdjust="spacingAndGlyphs" textLength="143">reset_module_firmware()</text><text x="459.5" y="80.953" fill="#000" font-family="sans-serif" font-size="11" lengthAdjust="spacingAndGlyphs" textLength="152">update_module_firmware()</text><text x="459.5" y="93.757" fill="#000" font-family="sans-serif" font-size="11" lengthAdjust="spacingAndGlyphs" textLength="155">update_network_firmware()</text><rect id="STM32FirmwareUpdater" width="180" height="32" x="447" y="396.5" fill="#FEFECE" filter="url(#f1855r83pwh5lj)" style="stroke:#a80036;stroke-width:1.5"/><ellipse cx="462" cy="412.5" fill="#ADD1B2" rx="11" ry="11" style="stroke:#a80036;stroke-width:1"/><path d="M464.9688,418.1406 Q464.3906,418.4375 463.75,418.5781 Q463.1094,418.7344 462.4063,418.7344 Q459.9063,418.7344 458.5781,417.0938 Q457.2656,415.4375 457.2656,412.3125 Q457.2656,409.1875 458.5781,407.5313 Q459.9063,405.875 462.4063,405.875 Q463.1094,405.875 463.75,406.0313 Q464.4063,406.1875 464.9688,406.4844 L464.9688,409.2031 Q464.3438,408.625 463.75,408.3594 Q463.1563,408.0781 462.5313,408.0781 Q461.1875,408.0781 460.5,409.1563 Q459.8125,410.2188 459.8125,412.3125 Q459.8125,414.4063 460.5,415.4844 Q461.1875,416.5469 462.5313,416.5469 Q463.1563,416.5469 463.75,416.2813 Q464.3438,416 464.9688,415.4219 L464.9688,418.1406 Z"/><text x="476" y="416.654" fill="#000" font-family="sans-serif" font-size="12" lengthAdjust="spacingAndGlyphs" textLength="148">STM32FirmwareUpdater</text><rect id="ESP32FirmwareUpdater" width="179" height="32" x="662.5" y="396.5" fill="#FEFECE" filter="url(#f1855r83pwh5lj)" style="stroke:#a80036;stroke-width:1.5"/><ellipse cx="677.5" cy="412.5" fill="#ADD1B2" rx="11" ry="11" style="stroke:#a80036;stroke-width:1"/><path d="M680.4688,418.1406 Q679.8906,418.4375 679.25,418.5781 Q678.6094,418.7344 677.9063,418.7344 Q675.4063,418.7344 674.0781,417.0938 Q672.7656,415.4375 672.7656,412.3125 Q672.7656,409.1875 674.0781,407.5313 Q675.4063,405.875 677.9063,405.875 Q678.6094,405.875 679.25,406.0313 Q679.9063,406.1875 680.4688,406.4844 L680.4688,409.2031 Q679.8438,408.625 679.25,408.3594 Q678.6563,408.0781 678.0313,408.0781 Q676.6875,408.0781 676,409.1563 Q675.3125,410.2188 675.3125,412.3125 Q675.3125,414.4063 676,415.4844 Q676.6875,416.5469 678.0313,416.5469 Q678.6563,416.5469 679.25,416.2813 Q679.8438,416 680.4688,415.4219 L680.4688,418.1406 Z"/><text x="691.5" y="416.654" fill="#000" font-family="sans-serif" font-size="12" lengthAdjust="spacingAndGlyphs" textLength="147">ESP32FirmwareUpdater</text><rect id="Module" width="159" height="470.555" x="1096.5" y="177" fill="#FEFECE" filter="url(#f1855r83pwh5lj)" style="stroke:#a80036;stroke-width:1.5"/><ellipse cx="1149.25" cy="193" fill="#ADD1B2" rx="11" ry="11" style="stroke:#a80036;stroke-width:1"/><path d="M1152.2188,198.6406 Q1151.6406,198.9375 1151,199.0781 Q1150.3594,199.2344 1149.6563,199.2344 Q1147.1563,199.2344 1145.8281,197.5938 Q1144.5156,195.9375 1144.5156,192.8125 Q1144.5156,189.6875 1145.8281,188.0313 Q1147.1563,186.375 1149.6563,186.375 Q1150.3594,186.375 1151,186.5313 Q1151.6563,186.6875 1152.2188,186.9844 L1152.2188,189.7031 Q1151.5938,189.125 1151,188.8594 Q1150.4063,188.5781 1149.7813,188.5781 Q1148.4375,188.5781 1147.75,189.6563 Q1147.0625,190.7188 1147.0625,192.8125 Q1147.0625,194.9063 1147.75,195.9844 Q1148.4375,197.0469 1149.7813,197.0469 Q1150.4063,197.0469 1151,196.7813 Q1151.5938,196.5 1152.2188,195.9219 L1152.2188,198.6406 Z"/><text x="1169.75" y="197.154" fill="#000" font-family="sans-serif" font-size="12" lengthAdjust="spacingAndGlyphs" textLength="45">Module</text><line style="stroke:#a80036;stroke-width:1.5" x1="1097.5" x2="1254.5" y1="209" y2="209"/><text x="1102.5" y="223.21" fill="#000" font-family="sans-serif" font-size="11" lengthAdjust="spacingAndGlyphs" textLength="74">ERROR_STOP</text><text x="1102.5" y="236.015" fill="#000" font-family="sans-serif" font-size="11" lengthAdjust="spacingAndGlyphs" textLength="88">FORCED_PAUSE</text><text x="1102.5" y="248.82" fill="#000" font-family="sans-serif" font-size="11" lengthAdjust="spacingAndGlyphs" textLength="49">PNP_OFF</text><text x="1102.5" y="261.625" fill="#000" font-family="sans-serif" font-size="11" lengthAdjust="spacingAndGlyphs" textLength="45">PNP_ON</text><text x="1102.5" y="274.429" fill="#000" font-family="sans-serif" font-size="11" lengthAdjust="spacingAndGlyphs" textLength="47">REBOOT</text><text x="1102.5" y="287.234" fill="#000" font-family="sans-serif" font-size="11" lengthAdjust="spacingAndGlyphs" textLength="23">RUN</text><text x="1102.5" y="300.039" fill="#000" font-family="sans-serif" font-size="11" lengthAdjust="spacingAndGlyphs" textLength="105">UPDATE_FIRMWARE</text><text x="1102.5" y="312.843" fill="#000" font-family="sans-serif" font-size="11" lengthAdjust="spacingAndGlyphs" textLength="147">UPDATE_FIRMWARE_READY</text><text x="1102.5" y="325.648" fill="#000" font-family="sans-serif" font-size="11" lengthAdjust="spacingAndGlyphs" textLength="51">WARNING</text><text x="1102.5" y="338.453" fill="#000" font-family="sans-serif" font-size="11" lengthAdjust="spacingAndGlyphs" textLength="54">__version</text><text x="1102.5" y="351.257" fill="#000" font-family="sans-serif" font-size="11" lengthAdjust="spacingAndGlyphs" textLength="33">_conn</text><text x="1102.5" y="364.062" fill="#000" font-family="sans-serif" font-size="11" lengthAdjust="spacingAndGlyphs" textLength="16">_id</text><text x="1102.5" y="376.867" fill="#000" font-family="sans-serif" font-size="11" lengthAdjust="spacingAndGlyphs" textLength="65">_properties</text><text x="1102.5" y="389.671" fill="#000" font-family="sans-serif" font-size="11" lengthAdjust="spacingAndGlyphs" textLength="30">_uuid</text><text x="1102.5" y="402.476" fill="#000" font-family="sans-serif" font-size="11" lengthAdjust="spacingAndGlyphs" textLength="40">battery</text><text x="1102.5" y="415.281" fill="#000" font-family="sans-serif" font-size="11" lengthAdjust="spacingAndGlyphs" textLength="86">has_user_code</text><text x="1102.5" y="428.085" fill="#000" font-family="sans-serif" font-size="11" lengthAdjust="spacingAndGlyphs" textLength="10">id</text><text x="1102.5" y="440.89" fill="#000" font-family="sans-serif" font-size="11" lengthAdjust="spacingAndGlyphs" textLength="74">is_connected</text><text x="1102.5" y="453.695" fill="#000" font-family="sans-serif" font-size="11" lengthAdjust="spacingAndGlyphs" textLength="78">is_up_to_date</text><text x="1102.5" y="466.5" fill="#000" font-family="sans-serif" font-size="11" lengthAdjust="spacingAndGlyphs" textLength="73">last_updated</text><text x="1102.5" y="479.304" fill="#000" font-family="sans-serif" font-size="11" lengthAdjust="spacingAndGlyphs" textLength="72">module_type</text><text x="1102.5" y="492.109" fill="#000" font-family="sans-serif" font-size="11" lengthAdjust="spacingAndGlyphs" textLength="31">order</text><text x="1102.5" y="504.914" fill="#000" font-family="sans-serif" font-size="11" lengthAdjust="spacingAndGlyphs" textLength="45">position</text><text x="1102.5" y="517.718" fill="#000" font-family="sans-serif" font-size="11" lengthAdjust="spacingAndGlyphs" textLength="101">user_code_status</text><text x="1102.5" y="530.523" fill="#000" font-family="sans-serif" font-size="11" lengthAdjust="spacingAndGlyphs" textLength="24">uuid</text><text x="1102.5" y="543.328" fill="#000" font-family="sans-serif" font-size="11" lengthAdjust="spacingAndGlyphs" textLength="42">version</text><line style="stroke:#a80036;stroke-width:1.5" x1="1097.5" x2="1254.5" y1="549.922" y2="549.922"/><text x="1102.5" y="564.132" fill="#000" font-family="sans-serif" font-size="11" lengthAdjust="spacingAndGlyphs" textLength="43">__gt__()</text><text x="1102.5" y="576.937" fill="#000" font-family="sans-serif" font-size="11" lengthAdjust="spacingAndGlyphs" textLength="49">__init__()</text><text x="1102.5" y="589.742" fill="#000" font-family="sans-serif" font-size="11" lengthAdjust="spacingAndGlyphs" textLength="39">__lt__()</text><text x="1102.5" y="602.546" fill="#000" font-family="sans-serif" font-size="11" lengthAdjust="spacingAndGlyphs" textLength="118">__request_property()</text><text x="1102.5" y="615.351" fill="#000" font-family="sans-serif" font-size="11" lengthAdjust="spacingAndGlyphs" textLength="48">__str__()</text><text x="1102.5" y="628.156" fill="#000" font-family="sans-serif" font-size="11" lengthAdjust="spacingAndGlyphs" textLength="86">_get_property()</text><text x="1102.5" y="640.96" fill="#000" font-family="sans-serif" font-size="11" lengthAdjust="spacingAndGlyphs" textLength="101">update_property()</text><rect id="Property" width="109" height="86.414" x="1290.5" y="369.5" fill="#FEFECE" filter="url(#f1855r83pwh5lj)" style="stroke:#a80036;stroke-width:1.5"/><ellipse cx="1316.3" cy="385.5" fill="#ADD1B2" rx="11" ry="11" style="stroke:#a80036;stroke-width:1"/><path d="M1319.2688,391.1406 Q1318.6906,391.4375 1318.05,391.5781 Q1317.4094,391.7344 1316.7063,391.7344 Q1314.2063,391.7344 1312.8781,390.0938 Q1311.5656,388.4375 1311.5656,385.3125 Q1311.5656,382.1875 1312.8781,380.5313 Q1314.2063,378.875 1316.7063,378.875 Q1317.4094,378.875 1318.05,379.0313 Q1318.7063,379.1875 1319.2688,379.4844 L1319.2688,382.2031 Q1318.6438,381.625 1318.05,381.3594 Q1317.4563,381.0781 1316.8313,381.0781 Q1315.4875,381.0781 1314.8,382.1563 Q1314.1125,383.2188 1314.1125,385.3125 Q1314.1125,387.4063 1314.8,388.4844 Q1315.4875,389.5469 1316.8313,389.5469 Q1317.4563,389.5469 1318.05,389.2813 Q1318.6438,389 1319.2688,388.4219 L1319.2688,391.1406 Z"/><text x="1332.7" y="389.654" fill="#000" font-family="sans-serif" font-size="12" lengthAdjust="spacingAndGlyphs" textLength="53">Property</text><line style="stroke:#a80036;stroke-width:1.5" x1="1291.5" x2="1398.5" y1="401.5" y2="401.5"/><text x="1296.5" y="415.71" fill="#000" font-family="sans-serif" font-size="11" lengthAdjust="spacingAndGlyphs" textLength="97">last_update_time</text><text x="1296.5" y="428.515" fill="#000" font-family="sans-serif" font-size="11" lengthAdjust="spacingAndGlyphs" textLength="30">value</text><line style="stroke:#a80036;stroke-width:1.5" x1="1291.5" x2="1398.5" y1="435.109" y2="435.109"/><text x="1296.5" y="449.32" fill="#000" font-family="sans-serif" font-size="11" lengthAdjust="spacingAndGlyphs" textLength="49">__init__()</text><rect id="module_py" width="98" height="58.742" x="1211" y="24.5" fill="#8FBC8F" filter="url(#f1855r83pwh5lj)" style="stroke:#a80036;stroke-width:1.5"/><ellipse cx="1226" cy="43.469" fill="orchid" rx="11" ry="11" style="stroke:#a80036;stroke-width:1"/><path d="M1221.7188,37.0781 L1224.6406,37.0781 L1226.1094,42.5156 L1227.5781,37.0781 L1230.5156,37.0781 L1230.5156,49.4688 L1228.4063,49.4688 L1228.4063,39.5469 L1227.0938,44.9688 L1225.1563,44.9688 L1223.8281,39.5469 L1223.8281,49.4688 L1221.7188,49.4688 L1221.7188,37.0781 Z"/><text x="1243" y="40.639" fill="#000" font-family="sans-serif" font-size="12" font-style="italic" lengthAdjust="spacingAndGlyphs" textLength="60">«module»</text><text x="1240" y="54.607" fill="#000" font-family="sans-serif" font-size="12" lengthAdjust="spacingAndGlyphs" textLength="66">module_py</text><line style="stroke:#a80036;stroke-width:1.5" x1="1212" x2="1308" y1="62.438" y2="62.438"/><text x="1217" y="76.648" fill="#000" font-family="sans-serif" font-size="11" lengthAdjust="spacingAndGlyphs" textLength="86">BROADCAST_ID</text><rect id="ConnTask" width="93" height="176.047" x="968.5" y="324.5" fill="#FEFECE" filter="url(#f1855r83pwh5lj)" style="stroke:#a80036;stroke-width:1.5"/><ellipse cx="983.5" cy="340.5" fill="#ADD1B2" rx="11" ry="11" style="stroke:#a80036;stroke-width:1"/><path d="M986.4688,346.1406 Q985.8906,346.4375 985.25,346.5781 Q984.6094,346.7344 983.9063,346.7344 Q981.4063,346.7344 980.0781,345.0938 Q978.7656,343.4375 978.7656,340.3125 Q978.7656,337.1875 980.0781,335.5313 Q981.4063,333.875 983.9063,333.875 Q984.6094,333.875 985.25,334.0313 Q985.9063,334.1875 986.4688,334.4844 L986.4688,337.2031 Q985.8438,336.625 985.25,336.3594 Q984.6563,336.0781 984.0313,336.0781 Q982.6875,336.0781 982,337.1563 Q981.3125,338.2188 981.3125,340.3125 Q981.3125,342.4063 982,343.4844 Q982.6875,344.5469 984.0313,344.5469 Q984.6563,344.5469 985.25,344.2813 Q985.8438,344 986.4688,343.4219 L986.4688,346.1406 Z"/><text x="997.5" y="344.654" fill="#000" font-family="sans-serif" font-size="12" lengthAdjust="spacingAndGlyphs" textLength="61">ConnTask</text><line style="stroke:#a80036;stroke-width:1.5" x1="969.5" x2="1060.5" y1="356.5" y2="356.5"/><text x="974.5" y="370.71" fill="#000" font-family="sans-serif" font-size="11" lengthAdjust="spacingAndGlyphs" textLength="27">_bus</text><text x="974.5" y="383.515" fill="#000" font-family="sans-serif" font-size="11" lengthAdjust="spacingAndGlyphs" textLength="21">bus</text><text x="974.5" y="396.32" fill="#000" font-family="sans-serif" font-size="11" lengthAdjust="spacingAndGlyphs" textLength="46">verbose</text><line style="stroke:#a80036;stroke-width:1.5" x1="969.5" x2="1060.5" y1="402.914" y2="402.914"/><text x="974.5" y="417.125" fill="#000" font-family="sans-serif" font-size="11" lengthAdjust="spacingAndGlyphs" textLength="49">__init__()</text><text x="974.5" y="429.929" fill="#000" font-family="sans-serif" font-size="11" lengthAdjust="spacingAndGlyphs" textLength="71">close_conn()</text><text x="974.5" y="442.734" fill="#000" font-family="sans-serif" font-size="11" lengthAdjust="spacingAndGlyphs" textLength="63">decorator()</text><text x="974.5" y="455.539" fill="#000" font-family="sans-serif" font-size="11" lengthAdjust="spacingAndGlyphs" textLength="69">open_conn()</text><text x="974.5" y="468.343" fill="#000" font-family="sans-serif" font-size="11" lengthAdjust="spacingAndGlyphs" textLength="32">recv()</text><text x="974.5" y="481.148" fill="#000" font-family="sans-serif" font-size="11" lengthAdjust="spacingAndGlyphs" textLength="36">send()</text><text x="974.5" y="493.953" fill="#000" font-family="sans-serif" font-size="11" lengthAdjust="spacingAndGlyphs" textLength="31">wait()</text><rect id="ABC" width="56" height="32" x="877" y="396.5" fill="#FEFECE" filter="url(#f1855r83pwh5lj)" style="stroke:#a80036;stroke-width:1.5"/><ellipse cx="892" cy="412.5" fill="#ADD1B2" rx="11" ry="11" style="stroke:#a80036;stroke-width:1"/><path d="M894.9688,418.1406 Q894.3906,418.4375 893.75,418.5781 Q893.1094,418.7344 892.4063,418.7344 Q889.9063,418.7344 888.5781,417.0938 Q887.2656,415.4375 887.2656,412.3125 Q887.2656,409.1875 888.5781,407.5313 Q889.9063,405.875 892.4063,405.875 Q893.1094,405.875 893.75,406.0313 Q894.4063,406.1875 894.9688,406.4844 L894.9688,409.2031 Q894.3438,408.625 893.75,408.3594 Q893.1563,408.0781 892.5313,408.0781 Q891.1875,408.0781 890.5,409.1563 Q889.8125,410.2188 889.8125,412.3125 Q889.8125,414.4063 890.5,415.4844 Q891.1875,416.5469 892.5313,416.5469 Q893.1563,416.5469 893.75,416.2813 Q894.3438,416 894.9688,415.4219 L894.9688,418.1406 Z"/><text x="906" y="416.654" fill="#000" font-family="sans-serif" font-size="12" lengthAdjust="spacingAndGlyphs" textLength="24">ABC</text><rect id="conn_task_py" width="116" height="37.938" x="957" y="35" fill="#8FBC8F" filter="url(#f1855r83pwh5lj)" style="stroke:#a80036;stroke-width:1.5"/><ellipse cx="972" cy="53.969" fill="orchid" rx="11" ry="11" style="stroke:#a80036;stroke-width:1"/><path d="M967.7188,47.5781 L970.6406,47.5781 L972.1094,53.0156 L973.5781,47.5781 L976.5156,47.5781 L976.5156,59.9688 L974.4063,59.9688 L974.4063,50.0469 L973.0938,55.4688 L971.1563,55.4688 L969.8281,50.0469 L969.8281,59.9688 L967.7188,59.9688 L967.7188,47.5781 Z"/><text x="998" y="51.139" fill="#000" font-family="sans-serif" font-size="12" font-style="italic" lengthAdjust="spacingAndGlyphs" textLength="60">«module»</text><text x="986" y="65.107" fill="#000" font-family="sans-serif" font-size="12" lengthAdjust="spacingAndGlyphs" textLength="84">conn_task_py</text><path id="th.Thread&lt;-ExeThrd" fill="none" d="M118.2992,781 C123.1647,781 128.0301,781 132.8956,781" style="stroke:#a80036;stroke-width:1"/><polygon fill="none" points="118.297 788 98.297 781 118.297 774 118.297 788" style="stroke:#a80036;stroke-width:1"/><path id="ExeThrd-ExeTask" fill="none" d="M174,849.3305 C174,849.3305 174,886.2516 174,900.7309" style="stroke:#a80036;stroke-width:1"/><polygon fill="#A80036" points="174 913.837 178 904.837 174 908.837 170 904.837 174 913.837" style="stroke:#a80036;stroke-width:1"/><line style="stroke:#a80036;stroke-width:1" x1="174" x2="174" y1="908.837" y2="900.837"/><polygon fill="#A80036" points="174 837.331 170 843.331 174 849.331 178 843.331 174 837.331" style="stroke:#a80036;stroke-width:1"/><text x="175" y="880.067" fill="#000" font-family="sans-serif" font-size="13" lengthAdjust="spacingAndGlyphs" textLength="71">__exe_task</text><path id="_exe_thrd_py-ExeThrd" fill="none" d="M138.099,431.5985 C131.7021,477.5375 118.441,597.6229 138,695 C139.9762,704.8388 143.1067,714.9562 146.7166,724.6402" style="stroke:#a80036;stroke-width:1;stroke-dasharray:7,7"/><text x="139" y="691.067" fill="#000" font-family="sans-serif" font-size="13" lengthAdjust="spacingAndGlyphs" textLength="54">contains</text><polygon fill="#000" points="161.5 700.133 164.5 706.133 167.5 700.133 161.5 700.133" style="stroke:#000;stroke-width:1"/><path id="MODI-ExeThrd" fill="none" d="M249.2117,606.6885 C249.2117,606.6885 216.502,682.4969 203.5109,712.6052" style="stroke:#a80036;stroke-width:1"/><polygon fill="#A80036" points="198.319 724.638 205.557 717.959 200.3 720.047 198.212 714.79 198.319 724.638" style="stroke:#a80036;stroke-width:1"/><line style="stroke:#a80036;stroke-width:1" x1="200.3" x2="203.469" y1="720.047" y2="712.702"/><polygon fill="#A80036" points="253.966 595.67 247.916 599.595 249.212 606.688 255.261 602.764 253.966 595.67" style="stroke:#a80036;stroke-width:1"/><text x="218" y="691.067" fill="#000" font-family="sans-serif" font-size="13" lengthAdjust="spacingAndGlyphs" textLength="63">_exe_thrd</text><path id="MODI-TopologyManager" fill="none" d="M345.8735,628.1293 C345.8735,628.1293 351.5503,723.2177 353.239,751.5033" style="stroke:#a80036;stroke-width:1"/><polygon fill="#A80036" points="354.024 764.653 357.481 755.431 353.726 759.662 349.495 755.908 354.024 764.653" style="stroke:#a80036;stroke-width:1"/><line style="stroke:#a80036;stroke-width:1" x1="353.726" x2="353.249" y1="759.662" y2="751.676"/><polygon fill="#A80036" points="345.158 616.151 341.523 622.378 345.873 628.129 349.509 621.902 345.158 616.151" style="stroke:#a80036;stroke-width:1"/><text x="351" y="691.067" fill="#000" font-family="sans-serif" font-size="13" lengthAdjust="spacingAndGlyphs" textLength="127">_topology_manager</text><path id="modi_py-MODI" fill="none" d="M486.9318,100.3795 C477.6096,109.846 468.2247,119.9839 460,130 C440.5487,153.6879 423.4631,180.8324 408.6542,208.72" style="stroke:#a80036;stroke-width:1;stroke-dasharray:7,7"/><text x="461" y="143.067" fill="#000" font-family="sans-serif" font-size="13" lengthAdjust="spacingAndGlyphs" textLength="54">contains</text><polygon fill="#000" points="483.5 152.133 486.5 158.133 489.5 152.133 483.5 152.133" style="stroke:#000;stroke-width:1"/><path id="modi_py-&gt;STM32FirmwareUpdater" fill="none" d="M537,100.1337 C537,178.3609 537,334.0786 537,391.0123" style="stroke:#a80036;stroke-width:1"/><polygon fill="#A80036" points="537 396.208 541 387.208 537 391.208 533 387.208 537 396.208" style="stroke:#a80036;stroke-width:1"/><text x="538" y="143.067" fill="#000" font-family="sans-serif" font-size="13" lengthAdjust="spacingAndGlyphs" textLength="30">uses</text><path id="modi_py-&gt;ESP32FirmwareUpdater" fill="none" d="M582.8298,100.2342 C603.1732,122.2903 626.4312,149.7681 644,177 C691.5672,250.7296 729.3511,348.8356 744.6422,391.3587" style="stroke:#a80036;stroke-width:1"/><polygon fill="#A80036" points="746.395 396.264 747.133 386.442 744.712 391.555 739.6 389.134 746.395 396.264" style="stroke:#a80036;stroke-width:1"/><text x="622" y="143.067" fill="#000" font-family="sans-serif" font-size="13" lengthAdjust="spacingAndGlyphs" textLength="30">uses</text><path id="Module-time.time" fill="none" d="M1093.6259,579.9143 C1093.6259,579.9143 1085.1347,659.696 1103,695 C1118.744,726.1121 1151.63,748.7099 1178.5384,762.9116" style="stroke:#a80036;stroke-width:1"/><polygon fill="#A80036" points="1190.398 768.846 1184.14 761.241 1185.927 766.609 1180.56 768.396 1190.398 768.846" style="stroke:#a80036;stroke-width:1"/><line style="stroke:#a80036;stroke-width:1" x1="1185.927" x2="1178.772" y1="766.609" y2="763.029"/><polygon fill="#A80036" points="1096.448 568.251 1091.149 573.142 1093.626 579.914 1098.925 575.024 1096.448 568.251" style="stroke:#a80036;stroke-width:1"/><text x="1104" y="691.067" fill="#000" font-family="sans-serif" font-size="13" lengthAdjust="spacingAndGlyphs" textLength="72">_properties</text><path id="Module-time.time-1" fill="none" d="M1205.5689,660.1387 C1205.5689,660.1387 1213.864,729.6113 1216.4855,751.5665" style="stroke:#a80036;stroke-width:1"/><polygon fill="#A80036" points="1218.057 764.728 1220.962 755.317 1217.464 759.763 1213.018 756.266 1218.057 764.728" style="stroke:#a80036;stroke-width:1"/><line style="stroke:#a80036;stroke-width:1" x1="1217.464" x2="1216.516" y1="759.763" y2="751.82"/><polygon fill="#A80036" points="1204.146 648.223 1200.886 654.655 1205.569 660.139 1208.829 653.707 1204.146 648.223" style="stroke:#a80036;stroke-width:1"/><text x="1211" y="691.067" fill="#000" font-family="sans-serif" font-size="13" lengthAdjust="spacingAndGlyphs" textLength="83">last_updated</text><path id="Property-time.time" fill="none" d="M1346.5363,467.5759 C1346.5363,467.5759 1338.6684,622.575 1303,695 C1291.1215,719.1194 1270.0049,740.8543 1252.0447,756.4397" style="stroke:#a80036;stroke-width:1"/><polygon fill="#A80036" points="1241.928 764.877 1251.402 762.184 1245.768 761.675 1246.278 756.041 1241.928 764.877" style="stroke:#a80036;stroke-width:1"/><line style="stroke:#a80036;stroke-width:1" x1="1245.768" x2="1251.912" y1="761.675" y2="756.551"/><polygon fill="#A80036" points="1346.558 455.576 1342.547 461.569 1346.536 467.576 1350.547 461.583 1346.558 455.576" style="stroke:#a80036;stroke-width:1"/><text x="1311" y="691.067" fill="#000" font-family="sans-serif" font-size="13" lengthAdjust="spacingAndGlyphs" textLength="111">last_update_time</text><path id="module_py-Module" fill="none" d="M1240.4358,83.544 C1232.2822,97.1647 1223.4592,113.8635 1218,130 C1212.9151,145.0301 1208.4452,160.7167 1204.5159,176.6609" style="stroke:#a80036;stroke-width:1;stroke-dasharray:7,7"/><text x="1219" y="143.067" fill="#000" font-family="sans-serif" font-size="13" lengthAdjust="spacingAndGlyphs" textLength="54">contains</text><polygon fill="#000" points="1241.5 152.133 1244.5 158.133 1247.5 152.133 1241.5 152.133" style="stroke:#000;stroke-width:1"/><path id="module_py-Property" fill="none" d="M1273.7727,83.8329 C1279.7324,97.65 1286.3846,114.4246 1291,130 C1315.614,213.0638 1331.668,313.2962 1339.459,369.2725" style="stroke:#a80036;stroke-width:1;stroke-dasharray:7,7"/><text x="1297" y="143.067" fill="#000" font-family="sans-serif" font-size="13" lengthAdjust="spacingAndGlyphs" textLength="54">contains</text><polygon fill="#000" points="1319.5 152.133 1322.5 158.133 1325.5 152.133 1319.5 152.133" style="stroke:#000;stroke-width:1"/><path id="ABC&lt;-ConnTask" fill="none" d="M953.3659,412.5 C958.3904,412.5 963.4149,412.5 968.4393,412.5" style="stroke:#a80036;stroke-width:1"/><polygon fill="none" points="953.359 419.5 933.359 412.5 953.359 405.5 953.359 419.5" style="stroke:#a80036;stroke-width:1"/><path id="conn_task_py-ConnTask" fill="none" d="M1015,73.2745 C1015,119.7419 1015,240.312 1015,324.4065" style="stroke:#a80036;stroke-width:1;stroke-dasharray:7,7"/><text x="1016" y="143.067" fill="#000" font-family="sans-serif" font-size="13" lengthAdjust="spacingAndGlyphs" textLength="54">contains</text><polygon fill="#000" points="1038.5 152.133 1041.5 158.133 1044.5 152.133 1038.5 152.133" style="stroke:#000;stroke-width:1"/><text x="626.5" y="965.282" fill="#888" font-family="sans-serif" font-size="10" lengthAdjust="spacingAndGlyphs" textLength="188">Generated by GitUml www.gituml.com</text></g></svg>