<?xml version="1.0" encoding="UTF-8" standalone="no"?><svg xmlns="http://www.w3.org/2000/svg" xmlns:xlink="http://www.w3.org/1999/xlink" contentScriptType="application/ecmascript" contentStyleType="text/css" height="628px" preserveAspectRatio="none" style="width:1215px;height:628px;" version="1.1" viewBox="0 0 1215 628" width="1215px" zoomAndPan="magnify"><defs><filter height="300%" id="f1mm1id0obn7qo" width="300%" x="-1" y="-1"><feGaussianBlur result="blurOut" stdDeviation="2.0"/><feColorMatrix in="blurOut" result="blurOut2" type="matrix" values="0 0 0 0 0 0 0 0 0 0 0 0 0 0 0 0 0 0 .4 0"/><feOffset dx="4.0" dy="4.0" in="blurOut2" result="blurOut3"/><feBlend in="SourceGraphic" in2="blurOut3" mode="normal"/></filter></defs><g><!--MD5=[da046a0f2622aab873424263b4756195]
cluster mp--><polygon fill="#FFFFFF" filter="url(#f1mm1id0obn7qo)" points="1083.5,521,1113.5,521,1120.5,543.2969,1173.5,543.2969,1173.5,588,1083.5,588,1083.5,521" style="stroke: #000000; stroke-width: 1.5;"/><line style="stroke: #000000; stroke-width: 1.5;" x1="1083.5" x2="1120.5" y1="543.2969" y2="543.2969"/><text fill="#000000" font-family="sans-serif" font-size="14" font-weight="bold" lengthAdjust="spacingAndGlyphs" textLength="24" x="1087.5" y="535.9951">mp</text><!--MD5=[3dab47d3fc3e186ff10f67819eb99ff8]
cluster time--><polygon fill="#FFFFFF" filter="url(#f1mm1id0obn7qo)" points="334.5,521,374.5,521,381.5,543.2969,410.5,543.2969,410.5,588,334.5,588,334.5,521" style="stroke: #000000; stroke-width: 1.5;"/><line style="stroke: #000000; stroke-width: 1.5;" x1="334.5" x2="381.5" y1="543.2969" y2="543.2969"/><text fill="#000000" font-family="sans-serif" font-size="14" font-weight="bold" lengthAdjust="spacingAndGlyphs" textLength="34" x="338.5" y="535.9951">time</text><!--MD5=[ca885028a7860ac88dae082e25a4795d]
class mp.Queue--><rect fill="#FEFECE" filter="url(#f1mm1id0obn7qo)" height="32" id="mp.Queue" style="stroke: #A80036; stroke-width: 1.5;" width="73" x="1092" y="548"/><ellipse cx="1107" cy="564" fill="#ADD1B2" rx="11" ry="11" style="stroke: #A80036; stroke-width: 1.0;"/><path d="M1109.9688,569.6406 Q1109.3906,569.9375 1108.75,570.0781 Q1108.1094,570.2344 1107.4063,570.2344 Q1104.9063,570.2344 1103.5781,568.5938 Q1102.2656,566.9375 1102.2656,563.8125 Q1102.2656,560.6875 1103.5781,559.0313 Q1104.9063,557.375 1107.4063,557.375 Q1108.1094,557.375 1108.75,557.5313 Q1109.4063,557.6875 1109.9688,557.9844 L1109.9688,560.7031 Q1109.3438,560.125 1108.75,559.8594 Q1108.1563,559.5781 1107.5313,559.5781 Q1106.1875,559.5781 1105.5,560.6563 Q1104.8125,561.7188 1104.8125,563.8125 Q1104.8125,565.9063 1105.5,566.9844 Q1106.1875,568.0469 1107.5313,568.0469 Q1108.1563,568.0469 1108.75,567.7813 Q1109.3438,567.5 1109.9688,566.9219 L1109.9688,569.6406 Z "/><text fill="#000000" font-family="sans-serif" font-size="12" lengthAdjust="spacingAndGlyphs" textLength="41" x="1121" y="568.1543">Queue</text><!--MD5=[3d73eea9d949cf898feb10f8b3df02d5]
class time.time--><rect fill="#FEFECE" filter="url(#f1mm1id0obn7qo)" height="32" id="time.time" style="stroke: #A80036; stroke-width: 1.5;" width="59" x="343" y="548"/><ellipse cx="358" cy="564" fill="#ADD1B2" rx="11" ry="11" style="stroke: #A80036; stroke-width: 1.0;"/><path d="M360.9688,569.6406 Q360.3906,569.9375 359.75,570.0781 Q359.1094,570.2344 358.4063,570.2344 Q355.9063,570.2344 354.5781,568.5938 Q353.2656,566.9375 353.2656,563.8125 Q353.2656,560.6875 354.5781,559.0313 Q355.9063,557.375 358.4063,557.375 Q359.1094,557.375 359.75,557.5313 Q360.4063,557.6875 360.9688,557.9844 L360.9688,560.7031 Q360.3438,560.125 359.75,559.8594 Q359.1563,559.5781 358.5313,559.5781 Q357.1875,559.5781 356.5,560.6563 Q355.8125,561.7188 355.8125,563.8125 Q355.8125,565.9063 356.5,566.9844 Q357.1875,568.0469 358.5313,568.0469 Q359.1563,568.0469 359.75,567.7813 Q360.3438,567.5 360.9688,566.9219 L360.9688,569.6406 Z "/><text fill="#000000" font-family="sans-serif" font-size="12" lengthAdjust="spacingAndGlyphs" textLength="27" x="372" y="568.1543">time</text><!--MD5=[c2088cc3228195408f8c0e1330d9ddcd]
class MODI--><rect fill="#FEFECE" filter="url(#f1mm1id0obn7qo)" height="342.5078" id="MODI" style="stroke: #A80036; stroke-width: 1.5;" width="137" x="858" y="123"/><ellipse cx="906.75" cy="139" fill="#ADD1B2" rx="11" ry="11" style="stroke: #A80036; stroke-width: 1.0;"/><path d="M909.7188,144.6406 Q909.1406,144.9375 908.5,145.0781 Q907.8594,145.2344 907.1563,145.2344 Q904.6563,145.2344 903.3281,143.5938 Q902.0156,141.9375 902.0156,138.8125 Q902.0156,135.6875 903.3281,134.0313 Q904.6563,132.375 907.1563,132.375 Q907.8594,132.375 908.5,132.5313 Q909.1563,132.6875 909.7188,132.9844 L909.7188,135.7031 Q909.0938,135.125 908.5,134.8594 Q907.9063,134.5781 907.2813,134.5781 Q905.9375,134.5781 905.25,135.6563 Q904.5625,136.7188 904.5625,138.8125 Q904.5625,140.9063 905.25,141.9844 Q905.9375,143.0469 907.2813,143.0469 Q907.9063,143.0469 908.5,142.7813 Q909.0938,142.5 909.7188,141.9219 L909.7188,144.6406 Z "/><text fill="#000000" font-family="sans-serif" font-size="12" lengthAdjust="spacingAndGlyphs" textLength="31" x="927.25" y="143.1543">MODI</text><line style="stroke: #A80036; stroke-width: 1.5;" x1="859" x2="994" y1="155" y2="155"/><text fill="#000000" font-family="sans-serif" font-size="11" lengthAdjust="spacingAndGlyphs" textLength="55" x="864" y="169.2104">_modules</text><text fill="#000000" font-family="sans-serif" font-size="11" lengthAdjust="spacingAndGlyphs" textLength="71" x="864" y="182.0151">_module_ids</text><text fill="#000000" font-family="sans-serif" font-size="11" lengthAdjust="spacingAndGlyphs" textLength="85" x="864" y="194.8198">_topology_data</text><text fill="#000000" font-family="sans-serif" font-size="11" lengthAdjust="spacingAndGlyphs" textLength="43" x="864" y="207.6245">_recv_q</text><text fill="#000000" font-family="sans-serif" font-size="11" lengthAdjust="spacingAndGlyphs" textLength="47" x="864" y="220.4292">_send_q</text><text fill="#000000" font-family="sans-serif" font-size="11" lengthAdjust="spacingAndGlyphs" textLength="61" x="864" y="233.2339">_com_proc</text><text fill="#000000" font-family="sans-serif" font-size="11" lengthAdjust="spacingAndGlyphs" textLength="55" x="864" y="246.0386">_exe_thrd</text><text fill="#000000" font-family="sans-serif" font-size="11" lengthAdjust="spacingAndGlyphs" textLength="111" x="864" y="258.8433">_topology_manager</text><text fill="#000000" font-family="sans-serif" font-size="11" lengthAdjust="spacingAndGlyphs" textLength="49" x="864" y="271.6479">modules</text><text fill="#000000" font-family="sans-serif" font-size="11" lengthAdjust="spacingAndGlyphs" textLength="43" x="864" y="284.4526">buttons</text><text fill="#000000" font-family="sans-serif" font-size="11" lengthAdjust="spacingAndGlyphs" textLength="27" x="864" y="297.2573">dials</text><text fill="#000000" font-family="sans-serif" font-size="11" lengthAdjust="spacingAndGlyphs" textLength="47" x="864" y="310.062">displays</text><text fill="#000000" font-family="sans-serif" font-size="11" lengthAdjust="spacingAndGlyphs" textLength="27" x="864" y="322.8667">envs</text><text fill="#000000" font-family="sans-serif" font-size="11" lengthAdjust="spacingAndGlyphs" textLength="32" x="864" y="335.6714">gyros</text><text fill="#000000" font-family="sans-serif" font-size="11" lengthAdjust="spacingAndGlyphs" textLength="15" x="864" y="348.4761">irs</text><text fill="#000000" font-family="sans-serif" font-size="11" lengthAdjust="spacingAndGlyphs" textLength="24" x="864" y="361.2808">leds</text><text fill="#000000" font-family="sans-serif" font-size="11" lengthAdjust="spacingAndGlyphs" textLength="27" x="864" y="374.0854">mics</text><text fill="#000000" font-family="sans-serif" font-size="11" lengthAdjust="spacingAndGlyphs" textLength="41" x="864" y="386.8901">motors</text><text fill="#000000" font-family="sans-serif" font-size="11" lengthAdjust="spacingAndGlyphs" textLength="53" x="864" y="399.6948">speakers</text><text fill="#000000" font-family="sans-serif" font-size="11" lengthAdjust="spacingAndGlyphs" textLength="63" x="864" y="412.4995">ultrasonics</text><line style="stroke: #A80036; stroke-width: 1.5;" x1="859" x2="994" y1="419.0938" y2="419.0938"/><text fill="#000000" font-family="sans-serif" font-size="11" lengthAdjust="spacingAndGlyphs" textLength="49" x="864" y="433.3042">__init__()</text><text fill="#000000" font-family="sans-serif" font-size="11" lengthAdjust="spacingAndGlyphs" textLength="125" x="864" y="446.1089">watch_child_process()</text><text fill="#000000" font-family="sans-serif" font-size="11" lengthAdjust="spacingAndGlyphs" textLength="119" x="864" y="458.9136">print_topology_map()</text><!--MD5=[9e0c9cbe66d30081b76ab66b0e18aa59]
class ConnProc--><rect fill="#FEFECE" filter="url(#f1mm1id0obn7qo)" height="32" id="ConnProc" style="stroke: #A80036; stroke-width: 1.5;" width="92" x="632.5" y="548"/><ellipse cx="647.5" cy="564" fill="#ADD1B2" rx="11" ry="11" style="stroke: #A80036; stroke-width: 1.0;"/><path d="M650.4688,569.6406 Q649.8906,569.9375 649.25,570.0781 Q648.6094,570.2344 647.9063,570.2344 Q645.4063,570.2344 644.0781,568.5938 Q642.7656,566.9375 642.7656,563.8125 Q642.7656,560.6875 644.0781,559.0313 Q645.4063,557.375 647.9063,557.375 Q648.6094,557.375 649.25,557.5313 Q649.9063,557.6875 650.4688,557.9844 L650.4688,560.7031 Q649.8438,560.125 649.25,559.8594 Q648.6563,559.5781 648.0313,559.5781 Q646.6875,559.5781 646,560.6563 Q645.3125,561.7188 645.3125,563.8125 Q645.3125,565.9063 646,566.9844 Q646.6875,568.0469 648.0313,568.0469 Q648.6563,568.0469 649.25,567.7813 Q649.8438,567.5 650.4688,566.9219 L650.4688,569.6406 Z "/><text fill="#000000" font-family="sans-serif" font-size="12" lengthAdjust="spacingAndGlyphs" textLength="60" x="661.5" y="568.1543">ConnProc</text><!--MD5=[13069e10e4876b4e39d86d0898e1a6e0]
class ExeThrd--><rect fill="#FEFECE" filter="url(#f1mm1id0obn7qo)" height="32" id="ExeThrd" style="stroke: #A80036; stroke-width: 1.5;" width="82" x="759.5" y="548"/><ellipse cx="774.5" cy="564" fill="#ADD1B2" rx="11" ry="11" style="stroke: #A80036; stroke-width: 1.0;"/><path d="M777.4688,569.6406 Q776.8906,569.9375 776.25,570.0781 Q775.6094,570.2344 774.9063,570.2344 Q772.4063,570.2344 771.0781,568.5938 Q769.7656,566.9375 769.7656,563.8125 Q769.7656,560.6875 771.0781,559.0313 Q772.4063,557.375 774.9063,557.375 Q775.6094,557.375 776.25,557.5313 Q776.9063,557.6875 777.4688,557.9844 L777.4688,560.7031 Q776.8438,560.125 776.25,559.8594 Q775.6563,559.5781 775.0313,559.5781 Q773.6875,559.5781 773,560.6563 Q772.3125,561.7188 772.3125,563.8125 Q772.3125,565.9063 773,566.9844 Q773.6875,568.0469 775.0313,568.0469 Q775.6563,568.0469 776.25,567.7813 Q776.8438,567.5 777.4688,566.9219 L777.4688,569.6406 Z "/><text fill="#000000" font-family="sans-serif" font-size="12" lengthAdjust="spacingAndGlyphs" textLength="50" x="788.5" y="568.1543">ExeThrd</text><!--MD5=[c4879cd5b17c6ac78da17e3108445ee2]
class TopologyManager--><rect fill="#FEFECE" filter="url(#f1mm1id0obn7qo)" height="32" id="TopologyManager" style="stroke: #A80036; stroke-width: 1.5;" width="143" x="877" y="548"/><ellipse cx="892" cy="564" fill="#ADD1B2" rx="11" ry="11" style="stroke: #A80036; stroke-width: 1.0;"/><path d="M894.9688,569.6406 Q894.3906,569.9375 893.75,570.0781 Q893.1094,570.2344 892.4063,570.2344 Q889.9063,570.2344 888.5781,568.5938 Q887.2656,566.9375 887.2656,563.8125 Q887.2656,560.6875 888.5781,559.0313 Q889.9063,557.375 892.4063,557.375 Q893.1094,557.375 893.75,557.5313 Q894.4063,557.6875 894.9688,557.9844 L894.9688,560.7031 Q894.3438,560.125 893.75,559.8594 Q893.1563,559.5781 892.5313,559.5781 Q891.1875,559.5781 890.5,560.6563 Q889.8125,561.7188 889.8125,563.8125 Q889.8125,565.9063 890.5,566.9844 Q891.1875,568.0469 892.5313,568.0469 Q893.1563,568.0469 893.75,567.7813 Q894.3438,567.5 894.9688,566.9219 L894.9688,569.6406 Z "/><text fill="#000000" font-family="sans-serif" font-size="12" lengthAdjust="spacingAndGlyphs" textLength="111" x="906" y="568.1543">TopologyManager</text><!--MD5=[ab0a0d22d6fedfe07975a5211532208f]
class modi_py--><rect fill="#8FBC8F" filter="url(#f1mm1id0obn7qo)" height="37.9375" id="modi_py" style="stroke: #A80036; stroke-width: 1.5;" width="88" x="882.5" y="8"/><ellipse cx="897.5" cy="26.9688" fill="#DA70D6" rx="11" ry="11" style="stroke: #A80036; stroke-width: 1.0;"/><path d="M893.2188,20.5781 L896.1406,20.5781 L897.6094,26.0156 L899.0781,20.5781 L902.0156,20.5781 L902.0156,32.9688 L899.9063,32.9688 L899.9063,23.0469 L898.5938,28.4688 L896.6563,28.4688 L895.3281,23.0469 L895.3281,32.9688 L893.2188,32.9688 L893.2188,20.5781 Z "/><text fill="#000000" font-family="sans-serif" font-size="12" font-style="italic" lengthAdjust="spacingAndGlyphs" textLength="60" x="909.5" y="24.1387">«module»</text><text fill="#000000" font-family="sans-serif" font-size="12" lengthAdjust="spacingAndGlyphs" textLength="50" x="914.5" y="38.1074">modi_py</text><!--MD5=[2b7409a316d9d2e410653e6983353aed]
class Module--><rect fill="#FEFECE" filter="url(#f1mm1id0obn7qo)" height="214.4609" id="Module" style="stroke: #A80036; stroke-width: 1.5;" width="140" x="302.5" y="187.5"/><ellipse cx="345.85" cy="203.5" fill="#ADD1B2" rx="11" ry="11" style="stroke: #A80036; stroke-width: 1.0;"/><path d="M348.8188,209.1406 Q348.2406,209.4375 347.6,209.5781 Q346.9594,209.7344 346.2563,209.7344 Q343.7563,209.7344 342.4281,208.0938 Q341.1156,206.4375 341.1156,203.3125 Q341.1156,200.1875 342.4281,198.5313 Q343.7563,196.875 346.2563,196.875 Q346.9594,196.875 347.6,197.0313 Q348.2563,197.1875 348.8188,197.4844 L348.8188,200.2031 Q348.1938,199.625 347.6,199.3594 Q347.0063,199.0781 346.3813,199.0781 Q345.0375,199.0781 344.35,200.1563 Q343.6625,201.2188 343.6625,203.3125 Q343.6625,205.4063 344.35,206.4844 Q345.0375,207.5469 346.3813,207.5469 Q347.0063,207.5469 347.6,207.2813 Q348.1938,207 348.8188,206.4219 L348.8188,209.1406 Z "/><text fill="#000000" font-family="sans-serif" font-size="12" lengthAdjust="spacingAndGlyphs" textLength="45" x="366.15" y="207.6543">Module</text><line style="stroke: #A80036; stroke-width: 1.5;" x1="303.5" x2="441.5" y1="219.5" y2="219.5"/><text fill="#000000" font-family="sans-serif" font-size="11" lengthAdjust="spacingAndGlyphs" textLength="16" x="308.5" y="233.7104">_id</text><text fill="#000000" font-family="sans-serif" font-size="11" lengthAdjust="spacingAndGlyphs" textLength="30" x="308.5" y="246.5151">_uuid</text><text fill="#000000" font-family="sans-serif" font-size="11" lengthAdjust="spacingAndGlyphs" textLength="78" x="308.5" y="259.3198">_msg_send_q</text><text fill="#000000" font-family="sans-serif" font-size="11" lengthAdjust="spacingAndGlyphs" textLength="65" x="308.5" y="272.1245">_properties</text><text fill="#000000" font-family="sans-serif" font-size="11" lengthAdjust="spacingAndGlyphs" textLength="80" x="308.5" y="284.9292">_is_connected</text><text fill="#000000" font-family="sans-serif" font-size="11" lengthAdjust="spacingAndGlyphs" textLength="10" x="308.5" y="297.7339">id</text><text fill="#000000" font-family="sans-serif" font-size="11" lengthAdjust="spacingAndGlyphs" textLength="24" x="308.5" y="310.5386">uuid</text><text fill="#000000" font-family="sans-serif" font-size="11" lengthAdjust="spacingAndGlyphs" textLength="74" x="308.5" y="323.3433">is_connected</text><line style="stroke: #A80036; stroke-width: 1.5;" x1="303.5" x2="441.5" y1="329.9375" y2="329.9375"/><text fill="#000000" font-family="sans-serif" font-size="11" lengthAdjust="spacingAndGlyphs" textLength="49" x="308.5" y="344.1479">__init__()</text><text fill="#000000" font-family="sans-serif" font-size="11" lengthAdjust="spacingAndGlyphs" textLength="128" x="308.5" y="356.9526">set_connection_state()</text><text fill="#000000" font-family="sans-serif" font-size="11" lengthAdjust="spacingAndGlyphs" textLength="86" x="308.5" y="369.7573">_get_property()</text><text fill="#000000" font-family="sans-serif" font-size="11" lengthAdjust="spacingAndGlyphs" textLength="101" x="308.5" y="382.562">update_property()</text><text fill="#000000" font-family="sans-serif" font-size="11" lengthAdjust="spacingAndGlyphs" textLength="106" x="308.5" y="395.3667">request_property()</text><!--MD5=[6b626634f3bb0842bebd5e499c80b711]
class Property--><rect fill="#FEFECE" filter="url(#f1mm1id0obn7qo)" height="99.2188" id="Property" style="stroke: #A80036; stroke-width: 1.5;" width="114" x="477.5" y="245"/><ellipse cx="505.55" cy="261" fill="#ADD1B2" rx="11" ry="11" style="stroke: #A80036; stroke-width: 1.0;"/><path d="M508.5188,266.6406 Q507.9406,266.9375 507.3,267.0781 Q506.6594,267.2344 505.9563,267.2344 Q503.4563,267.2344 502.1281,265.5938 Q500.8156,263.9375 500.8156,260.8125 Q500.8156,257.6875 502.1281,256.0313 Q503.4563,254.375 505.9563,254.375 Q506.6594,254.375 507.3,254.5313 Q507.9563,254.6875 508.5188,254.9844 L508.5188,257.7031 Q507.8938,257.125 507.3,256.8594 Q506.7063,256.5781 506.0813,256.5781 Q504.7375,256.5781 504.05,257.6563 Q503.3625,258.7188 503.3625,260.8125 Q503.3625,262.9063 504.05,263.9844 Q504.7375,265.0469 506.0813,265.0469 Q506.7063,265.0469 507.3,264.7813 Q507.8938,264.5 508.5188,263.9219 L508.5188,266.6406 Z "/><text fill="#000000" font-family="sans-serif" font-size="12" lengthAdjust="spacingAndGlyphs" textLength="53" x="522.45" y="265.1543">Property</text><line style="stroke: #A80036; stroke-width: 1.5;" x1="478.5" x2="590.5" y1="277" y2="277"/><text fill="#000000" font-family="sans-serif" font-size="11" lengthAdjust="spacingAndGlyphs" textLength="30" x="483.5" y="291.2104">value</text><text fill="#000000" font-family="sans-serif" font-size="11" lengthAdjust="spacingAndGlyphs" textLength="97" x="483.5" y="304.0151">last_update_time</text><text fill="#000000" font-family="sans-serif" font-size="11" lengthAdjust="spacingAndGlyphs" textLength="102" x="483.5" y="316.8198">last_request_time</text><line style="stroke: #A80036; stroke-width: 1.5;" x1="478.5" x2="590.5" y1="323.4141" y2="323.4141"/><text fill="#000000" font-family="sans-serif" font-size="11" lengthAdjust="spacingAndGlyphs" textLength="49" x="483.5" y="337.6245">__init__()</text><!--MD5=[60d6b92408f98aed8df94d5c6e04aa63]
class State--><rect fill="#FEFECE" filter="url(#f1mm1id0obn7qo)" height="155.2422" id="State" style="stroke: #A80036; stroke-width: 1.5;" width="159" x="108" y="217"/><ellipse cx="166.25" cy="233" fill="#ADD1B2" rx="11" ry="11" style="stroke: #A80036; stroke-width: 1.0;"/><path d="M169.2188,238.6406 Q168.6406,238.9375 168,239.0781 Q167.3594,239.2344 166.6563,239.2344 Q164.1563,239.2344 162.8281,237.5938 Q161.5156,235.9375 161.5156,232.8125 Q161.5156,229.6875 162.8281,228.0313 Q164.1563,226.375 166.6563,226.375 Q167.3594,226.375 168,226.5313 Q168.6563,226.6875 169.2188,226.9844 L169.2188,229.7031 Q168.5938,229.125 168,228.8594 Q167.4063,228.5781 166.7813,228.5781 Q165.4375,228.5781 164.75,229.6563 Q164.0625,230.7188 164.0625,232.8125 Q164.0625,234.9063 164.75,235.9844 Q165.4375,237.0469 166.7813,237.0469 Q167.4063,237.0469 168,236.7813 Q168.5938,236.5 169.2188,235.9219 L169.2188,238.6406 Z "/><text fill="#000000" font-family="sans-serif" font-size="12" lengthAdjust="spacingAndGlyphs" textLength="34" x="186.75" y="237.1543">State</text><line style="stroke: #A80036; stroke-width: 1.5;" x1="109" x2="266" y1="249" y2="249"/><text fill="#000000" font-family="sans-serif" font-size="11" lengthAdjust="spacingAndGlyphs" textLength="23" x="114" y="263.2104">RUN</text><text fill="#000000" font-family="sans-serif" font-size="11" lengthAdjust="spacingAndGlyphs" textLength="51" x="114" y="276.0151">WARNING</text><text fill="#000000" font-family="sans-serif" font-size="11" lengthAdjust="spacingAndGlyphs" textLength="88" x="114" y="288.8198">FORCED_PAUSE</text><text fill="#000000" font-family="sans-serif" font-size="11" lengthAdjust="spacingAndGlyphs" textLength="74" x="114" y="301.6245">ERROR_STOP</text><text fill="#000000" font-family="sans-serif" font-size="11" lengthAdjust="spacingAndGlyphs" textLength="105" x="114" y="314.4292">UPDATE_FIRMWARE</text><text fill="#000000" font-family="sans-serif" font-size="11" lengthAdjust="spacingAndGlyphs" textLength="147" x="114" y="327.2339">UPDATE_FIRMWARE_READY</text><text fill="#000000" font-family="sans-serif" font-size="11" lengthAdjust="spacingAndGlyphs" textLength="47" x="114" y="340.0386">REBOOT</text><text fill="#000000" font-family="sans-serif" font-size="11" lengthAdjust="spacingAndGlyphs" textLength="45" x="114" y="352.8433">PNP_ON</text><text fill="#000000" font-family="sans-serif" font-size="11" lengthAdjust="spacingAndGlyphs" textLength="49" x="114" y="365.6479">PNP_OFF</text><!--MD5=[4298d0dcfa55ecd56071adba7add2166]
class Enum--><rect fill="#FEFECE" filter="url(#f1mm1id0obn7qo)" height="32" id="Enum" style="stroke: #A80036; stroke-width: 1.5;" width="67" x="6" y="278.5"/><ellipse cx="21" cy="294.5" fill="#ADD1B2" rx="11" ry="11" style="stroke: #A80036; stroke-width: 1.0;"/><path d="M23.9688,300.1406 Q23.3906,300.4375 22.75,300.5781 Q22.1094,300.7344 21.4063,300.7344 Q18.9063,300.7344 17.5781,299.0938 Q16.2656,297.4375 16.2656,294.3125 Q16.2656,291.1875 17.5781,289.5313 Q18.9063,287.875 21.4063,287.875 Q22.1094,287.875 22.75,288.0313 Q23.4063,288.1875 23.9688,288.4844 L23.9688,291.2031 Q23.3438,290.625 22.75,290.3594 Q22.1563,290.0781 21.5313,290.0781 Q20.1875,290.0781 19.5,291.1563 Q18.8125,292.2188 18.8125,294.3125 Q18.8125,296.4063 19.5,297.4844 Q20.1875,298.5469 21.5313,298.5469 Q22.1563,298.5469 22.75,298.2813 Q23.3438,298 23.9688,297.4219 L23.9688,300.1406 Z "/><text fill="#000000" font-family="sans-serif" font-size="12" lengthAdjust="spacingAndGlyphs" textLength="35" x="35" y="298.6543">Enum</text><!--MD5=[497eac8eee555f191daedfe992bd6bba]
class module_py--><rect fill="#8FBC8F" filter="url(#f1mm1id0obn7qo)" height="37.9375" id="module_py" style="stroke: #A80036; stroke-width: 1.5;" width="98" x="323.5" y="8"/><ellipse cx="338.5" cy="26.9688" fill="#DA70D6" rx="11" ry="11" style="stroke: #A80036; stroke-width: 1.0;"/><path d="M334.2188,20.5781 L337.1406,20.5781 L338.6094,26.0156 L340.0781,20.5781 L343.0156,20.5781 L343.0156,32.9688 L340.9063,32.9688 L340.9063,23.0469 L339.5938,28.4688 L337.6563,28.4688 L336.3281,23.0469 L336.3281,32.9688 L334.2188,32.9688 L334.2188,20.5781 Z "/><text fill="#000000" font-family="sans-serif" font-size="12" font-style="italic" lengthAdjust="spacingAndGlyphs" textLength="60" x="355.5" y="24.1387">«module»</text><text fill="#000000" font-family="sans-serif" font-size="12" lengthAdjust="spacingAndGlyphs" textLength="66" x="352.5" y="38.1074">module_py</text><!--MD5=[a72fadcd0412b9b6c1531059cec5e00e]
class ConnTask--><rect fill="#FEFECE" filter="url(#f1mm1id0obn7qo)" height="99.2188" id="ConnTask" style="stroke: #A80036; stroke-width: 1.5;" width="105" x="718" y="245"/><ellipse cx="738.4" cy="261" fill="#ADD1B2" rx="11" ry="11" style="stroke: #A80036; stroke-width: 1.0;"/><path d="M741.3688,266.6406 Q740.7906,266.9375 740.15,267.0781 Q739.5094,267.2344 738.8063,267.2344 Q736.3063,267.2344 734.9781,265.5938 Q733.6656,263.9375 733.6656,260.8125 Q733.6656,257.6875 734.9781,256.0313 Q736.3063,254.375 738.8063,254.375 Q739.5094,254.375 740.15,254.5313 Q740.8063,254.6875 741.3688,254.9844 L741.3688,257.7031 Q740.7438,257.125 740.15,256.8594 Q739.5563,256.5781 738.9313,256.5781 Q737.5875,256.5781 736.9,257.6563 Q736.2125,258.7188 736.2125,260.8125 Q736.2125,262.9063 736.9,263.9844 Q737.5875,265.0469 738.9313,265.0469 Q739.5563,265.0469 740.15,264.7813 Q740.7438,264.5 741.3688,263.9219 L741.3688,266.6406 Z "/><text fill="#000000" font-family="sans-serif" font-size="12" lengthAdjust="spacingAndGlyphs" textLength="61" x="753.6" y="265.1543">ConnTask</text><line style="stroke: #A80036; stroke-width: 1.5;" x1="719" x2="822" y1="277" y2="277"/><text fill="#000000" font-family="sans-serif" font-size="11" lengthAdjust="spacingAndGlyphs" textLength="43" x="724" y="291.2104">_recv_q</text><text fill="#000000" font-family="sans-serif" font-size="11" lengthAdjust="spacingAndGlyphs" textLength="47" x="724" y="304.0151">_send_q</text><line style="stroke: #A80036; stroke-width: 1.5;" x1="719" x2="822" y1="310.6094" y2="310.6094"/><text fill="#000000" font-family="sans-serif" font-size="11" lengthAdjust="spacingAndGlyphs" textLength="49" x="724" y="324.8198">__init__()</text><text fill="#000000" font-family="sans-serif" font-size="11" lengthAdjust="spacingAndGlyphs" textLength="93" x="724" y="337.6245">__is_modi_port()</text><!--MD5=[af2c5ce85c02d1716125757f0fa1792e]
class ABC--><rect fill="#FEFECE" filter="url(#f1mm1id0obn7qo)" height="32" id="ABC" style="stroke: #A80036; stroke-width: 1.5;" width="56" x="626.5" y="278.5"/><ellipse cx="641.5" cy="294.5" fill="#ADD1B2" rx="11" ry="11" style="stroke: #A80036; stroke-width: 1.0;"/><path d="M644.4688,300.1406 Q643.8906,300.4375 643.25,300.5781 Q642.6094,300.7344 641.9063,300.7344 Q639.4063,300.7344 638.0781,299.0938 Q636.7656,297.4375 636.7656,294.3125 Q636.7656,291.1875 638.0781,289.5313 Q639.4063,287.875 641.9063,287.875 Q642.6094,287.875 643.25,288.0313 Q643.9063,288.1875 644.4688,288.4844 L644.4688,291.2031 Q643.8438,290.625 643.25,290.3594 Q642.6563,290.0781 642.0313,290.0781 Q640.6875,290.0781 640,291.1563 Q639.3125,292.2188 639.3125,294.3125 Q639.3125,296.4063 640,297.4844 Q640.6875,298.5469 642.0313,298.5469 Q642.6563,298.5469 643.25,298.2813 Q643.8438,298 644.4688,297.4219 L644.4688,300.1406 Z "/><text fill="#000000" font-family="sans-serif" font-size="12" lengthAdjust="spacingAndGlyphs" textLength="24" x="655.5" y="298.6543">ABC</text><!--MD5=[07bc994faec34da6adfbe6194d1cce1b]
class conn_task_py--><rect fill="#8FBC8F" filter="url(#f1mm1id0obn7qo)" height="37.9375" id="conn_task_py" style="stroke: #A80036; stroke-width: 1.5;" width="116" x="712.5" y="8"/><ellipse cx="727.5" cy="26.9688" fill="#DA70D6" rx="11" ry="11" style="stroke: #A80036; stroke-width: 1.0;"/><path d="M723.2188,20.5781 L726.1406,20.5781 L727.6094,26.0156 L729.0781,20.5781 L732.0156,20.5781 L732.0156,32.9688 L729.9063,32.9688 L729.9063,23.0469 L728.5938,28.4688 L726.6563,28.4688 L725.3281,23.0469 L725.3281,32.9688 L723.2188,32.9688 L723.2188,20.5781 Z "/><text fill="#000000" font-family="sans-serif" font-size="12" font-style="italic" lengthAdjust="spacingAndGlyphs" textLength="60" x="753.5" y="24.1387">«module»</text><text fill="#000000" font-family="sans-serif" font-size="12" lengthAdjust="spacingAndGlyphs" textLength="84" x="741.5" y="38.1074">conn_task_py</text><!--MD5=[13e5fe9a53cb86acde9534909e076ab2]
link MODI to mp.Queue--><path d="M1002.367,395.7187 C1002.367,395.7187 1083.8813,504.4715 1108.4021,537.1862 " fill="none" id="MODI-mp.Queue" style="stroke: #A80036; stroke-width: 1.0;"/><polygon fill="#A80036" points="1116.2713,547.6849,1114.0742,538.0842,1113.2725,543.684,1107.6727,542.8823,1116.2713,547.6849" style="stroke: #A80036; stroke-width: 1.0;"/><line style="stroke: #A80036; stroke-width: 1.0;" x1="1113.2725" x2="1108.4743" y1="543.684" y2="537.2826"/><polygon fill="#A80036" points="995.1699,386.1165,995.5677,393.3166,1002.367,395.7187,1001.9692,388.5185,995.1699,386.1165" style="stroke: #A80036; stroke-width: 1.0;"/><text fill="#000000" font-family="sans-serif" font-size="13" lengthAdjust="spacingAndGlyphs" textLength="49" x="1090.5" y="509.0669">_recv_q</text><!--MD5=[13e5fe9a53cb86acde9534909e076ab2]
link MODI to mp.Queue--><path d="M1004.9325,341.2179 C1004.9325,341.2179 1118.6341,430.618 1147.5,496 C1153.085,508.6502 1150.058,523.3564 1144.9246,535.8498 " fill="none" id="MODI-mp.Queue-1" style="stroke: #A80036; stroke-width: 1.0;"/><polygon fill="#A80036" points="1139.0852,547.8895,1146.6118,541.5373,1141.2672,543.3907,1139.4137,538.0461,1139.0852,547.8895" style="stroke: #A80036; stroke-width: 1.0;"/><line style="stroke: #A80036; stroke-width: 1.0;" x1="1141.2672" x2="1144.7584" y1="543.3907" y2="536.1926"/><polygon fill="#A80036" points="995.0082,334.472,997.7217,341.1531,1004.9325,341.2179,1002.219,334.5369,995.0082,334.472" style="stroke: #A80036; stroke-width: 1.0;"/><text fill="#000000" font-family="sans-serif" font-size="13" lengthAdjust="spacingAndGlyphs" textLength="53" x="1150.5" y="509.0669">_send_q</text><!--MD5=[a828eddd6209885c2e8612392f52fb10]
link MODI to ConnProc--><path d="M849.7629,457.381 C849.7629,457.381 843.4147,463.5228 840.5,466 C806.4384,494.9488 782.5716,472.574 744.5,496 C726.8582,506.8552 710.605,523.4812 698.6419,537.5758 " fill="none" id="MODI-ConnProc" style="stroke: #A80036; stroke-width: 1.0;"/><polygon fill="#A80036" points="690.3779,547.7231,699.1628,543.2706,693.5353,543.8462,692.9597,538.2187,690.3779,547.7231" style="stroke: #A80036; stroke-width: 1.0;"/><line style="stroke: #A80036; stroke-width: 1.0;" x1="693.5353" x2="698.5872" y1="543.8462" y2="537.643"/><polygon fill="#A80036" points="857.9669,448.6234,850.9457,450.2675,849.7629,457.381,856.7841,455.7368,857.9669,448.6234" style="stroke: #A80036; stroke-width: 1.0;"/><text fill="#000000" font-family="sans-serif" font-size="13" lengthAdjust="spacingAndGlyphs" textLength="70" x="745.5" y="509.0669">_com_proc</text><!--MD5=[eaf83e8d2c9ece3004a558b7124ec51a]
link MODI to ExeThrd--><path d="M852.8868,451.9503 C852.8868,451.9503 823.3632,515.0981 813.6406,535.8937 " fill="none" id="MODI-ExeThrd" style="stroke: #A80036; stroke-width: 1.0;"/><polygon fill="#A80036" points="808.052,547.8471,815.4873,541.3883,810.1696,543.3177,808.2402,538,808.052,547.8471" style="stroke: #A80036; stroke-width: 1.0;"/><line style="stroke: #A80036; stroke-width: 1.0;" x1="810.1696" x2="813.558" y1="543.3177" y2="536.0707"/><polygon fill="#A80036" points="857.9692,441.0797,851.8045,444.8208,852.8868,451.9503,859.0515,448.2091,857.9692,441.0797" style="stroke: #A80036; stroke-width: 1.0;"/><text fill="#000000" font-family="sans-serif" font-size="13" lengthAdjust="spacingAndGlyphs" textLength="63" x="831.5" y="509.0669">_exe_thrd</text><!--MD5=[4b9f588c1fa3fa3d5097d3b297d46440]
link MODI to TopologyManager--><path d="M917.5437,478.1473 C917.5437,478.1473 920.9624,502.0581 923.5,513 C925.3045,520.7807 928.4699,528.7434 931.9543,535.9941 " fill="none" id="MODI-TopologyManager" style="stroke: #A80036; stroke-width: 1.0;"/><polygon fill="#A80036" points="938.1386,547.7216,937.4787,537.8949,935.8064,543.2989,930.4024,541.6265,938.1386,547.7216" style="stroke: #A80036; stroke-width: 1.0;"/><line style="stroke: #A80036; stroke-width: 1.0;" x1="935.8064" x2="932.0747" y1="543.2989" y2="536.2225"/><polygon fill="#A80036" points="916.2962,466.2123,912.9416,472.5956,917.5437,478.1473,920.8983,471.764,916.2962,466.2123" style="stroke: #A80036; stroke-width: 1.0;"/><text fill="#000000" font-family="sans-serif" font-size="13" lengthAdjust="spacingAndGlyphs" textLength="127" x="924.5" y="509.0669">_topology_manager</text><!--MD5=[4383090306410d67a6aca94ea0ef32d5]
link modi_py to MODI--><path d="M926.5,46.2379 C926.5,63.8479 926.5,91.8106 926.5,122.7296 " fill="none" id="modi_py-MODI" style="stroke: #A80036; stroke-width: 1.0; stroke-dasharray: 7.0,7.0;"/><text fill="#000000" font-family="sans-serif" font-size="13" lengthAdjust="spacingAndGlyphs" textLength="54" x="927.5" y="89.0669">contains</text><polygon fill="#000000" points="950,98.1328,953,104.1328,956,98.1328,950,98.1328" style="stroke: #000000; stroke-width: 1.0;"/><!--MD5=[d324479f8c09f921ff2defe8bccdd26e]
link Module to time.time--><path d="M372.5,413.7879 C372.5,413.7879 372.5,505.723 372.5,534.7562 " fill="none" id="Module-time.time" style="stroke: #A80036; stroke-width: 1.0;"/><polygon fill="#A80036" points="372.5,547.8846,376.5,538.8846,372.5,542.8846,368.5,538.8846,372.5,547.8846" style="stroke: #A80036; stroke-width: 1.0;"/><line style="stroke: #A80036; stroke-width: 1.0;" x1="372.5" x2="372.5001" y1="542.8846" y2="534.8847"/><polygon fill="#A80036" points="372.5,401.7879,368.5,407.7879,372.5,413.7879,376.5,407.7879,372.5,401.7879" style="stroke: #A80036; stroke-width: 1.0;"/><text fill="#000000" font-family="sans-serif" font-size="13" lengthAdjust="spacingAndGlyphs" textLength="72" x="373.5" y="509.0669">_properties</text><!--MD5=[e17f6e4c360298d4561311991865a753]
reverse link Enum to State--><path d="M93.1946,294.5 C98.0992,294.5 103.0038,294.5 107.9084,294.5 " fill="none" id="Enum&lt;-State" style="stroke: #A80036; stroke-width: 1.0;"/><polygon fill="none" points="93.0313,301.4999,73.0313,294.5,93.0312,287.4999,93.0313,301.4999" style="stroke: #A80036; stroke-width: 1.0;"/><!--MD5=[de8064f3faeb453dc3e041591c51a40c]
link module_py to Module--><path d="M372.5,46.2379 C372.5,75.7675 372.5,134.4079 372.5,187.2839 " fill="none" id="module_py-Module" style="stroke: #A80036; stroke-width: 1.0; stroke-dasharray: 7.0,7.0;"/><text fill="#000000" font-family="sans-serif" font-size="13" lengthAdjust="spacingAndGlyphs" textLength="54" x="373.5" y="89.0669">contains</text><polygon fill="#000000" points="396,98.1328,399,104.1328,402,98.1328,396,98.1328" style="stroke: #000000; stroke-width: 1.0;"/><!--MD5=[1d0aef6b9b15c0b6e6a6d953fe6a947b]
link module_py to Property--><path d="M412.627,46.0048 C425.7736,53.8024 439.5446,63.877 449.5,76 C490.3141,125.7005 513.1265,197.2831 524.6112,244.8051 " fill="none" id="module_py-Property" style="stroke: #A80036; stroke-width: 1.0; stroke-dasharray: 7.0,7.0;"/><text fill="#000000" font-family="sans-serif" font-size="13" lengthAdjust="spacingAndGlyphs" textLength="54" x="462.5" y="89.0669">contains</text><polygon fill="#000000" points="485,98.1328,488,104.1328,491,98.1328,485,98.1328" style="stroke: #000000; stroke-width: 1.0;"/><!--MD5=[4d0175a9f6d311ce468e36038c0f78ce]
link module_py to State--><path d="M333.7568,46.0399 C320.4316,53.952 306.191,64.0911 295.5,76 C258.9638,116.698 231.7907,171.9977 213.8395,216.7806 " fill="none" id="module_py-State" style="stroke: #A80036; stroke-width: 1.0; stroke-dasharray: 7.0,7.0;"/><text fill="#000000" font-family="sans-serif" font-size="13" lengthAdjust="spacingAndGlyphs" textLength="54" x="296.5" y="89.0669">contains</text><polygon fill="#000000" points="319,98.1328,322,104.1328,325,98.1328,319,98.1328" style="stroke: #000000; stroke-width: 1.0;"/><!--MD5=[7b1eba3ae797219edf35401332f0554a]
reverse link ABC to ConnTask--><path d="M702.7649,294.5 C707.8307,294.5 712.8965,294.5 717.9623,294.5 " fill="none" id="ABC&lt;-ConnTask" style="stroke: #A80036; stroke-width: 1.0;"/><polygon fill="none" points="702.5938,301.4999,682.5938,294.5,702.5937,287.4999,702.5938,301.4999" style="stroke: #A80036; stroke-width: 1.0;"/><!--MD5=[d65990e48b5cc9de4d645a4b9604b3d1]
link conn_task_py to ConnTask--><path d="M770.5,46.2379 C770.5,87.3877 770.5,185.0668 770.5,244.9026 " fill="none" id="conn_task_py-ConnTask" style="stroke: #A80036; stroke-width: 1.0; stroke-dasharray: 7.0,7.0;"/><text fill="#000000" font-family="sans-serif" font-size="13" lengthAdjust="spacingAndGlyphs" textLength="54" x="771.5" y="89.0669">contains</text><polygon fill="#000000" points="794,98.1328,797,104.1328,800,98.1328,794,98.1328" style="stroke: #000000; stroke-width: 1.0;"/><text fill="#888888" font-family="sans-serif" font-size="10" lengthAdjust="spacingAndGlyphs" textLength="188" x="517.5" y="615.2822">Generated by GitUml www.gituml.com</text><!--MD5=[707878c4f9ee022910035dbb161f5f61]
@startuml
class MODI {
    _modules
    _module_ids
    _topology_data
    _recv_q
    _send_q
    _com_proc
    _exe_thrd
    _topology_manager
    modules
    buttons
    dials
    displays
    envs
    gyros
    irs
    leds
    mics
    motors
    speakers
    ultrasonics
    __init__()
    watch_child_process()
    print_topology_map()
}

MODI *- -> mp.Queue : _recv_q
MODI *- -> mp.Queue : _send_q
MODI *- -> ConnProc : _com_proc
MODI *- -> ExeThrd : _exe_thrd
MODI *- -> TopologyManager : _topology_manager
class modi_py <<module>> << (M,orchid) >> #DarkSeaGreen {
}

modi_py .. MODI : contains >
class Module {
    _id
    _uuid
    _msg_send_q
    _properties
    _is_connected
    id
    uuid
    is_connected
    __init__()
    set_connection_state()
    _get_property()
    update_property()
    request_property()
}

Module *- -> time.time : _properties

class Property {
    value
    last_update_time
    last_request_time
    __init__()
}


class State {
    RUN
    WARNING
    FORCED_PAUSE
    ERROR_STOP
    UPDATE_FIRMWARE
    UPDATE_FIRMWARE_READY
    REBOOT
    PNP_ON
    PNP_OFF
}

Enum <|- State
class module_py <<module>> << (M,orchid) >> #DarkSeaGreen {
}

module_py .. Module : contains >
module_py .. Property : contains >
module_py .. State : contains >
class ConnTask {
    _recv_q
    _send_q
    __init__()
    __is_modi_port()
}

ABC <|- ConnTask
class conn_task_py <<module>> << (M,orchid) >> #DarkSeaGreen {
}

conn_task_py .. ConnTask : contains >
center footer Generated by GitUml www.gituml.com
hide empty members
@enduml

PlantUML version 1.2020.08(Sun Apr 26 14:08:22 UTC 2020)
(GPL source distribution)
Java Runtime: OpenJDK Runtime Environment
JVM: OpenJDK 64-Bit Server VM
Java Version: 1.8.0_252-heroku-b09
Operating System: Linux
Default Encoding: UTF-8
Language: en
Country: US
--></g></svg>