<?xml version="1.0" encoding="UTF-8" standalone="no"?><svg xmlns="http://www.w3.org/2000/svg" xmlns:xlink="http://www.w3.org/1999/xlink" contentScriptType="application/ecmascript" contentStyleType="text/css" height="978px" preserveAspectRatio="none" style="width:1434px;height:978px;" version="1.1" viewBox="0 0 1434 978" width="1434px" zoomAndPan="magnify"><defs><filter height="300%" id="f1855r83pwh5lj" width="300%" x="-1" y="-1"><feGaussianBlur result="blurOut" stdDeviation="2.0"/><feColorMatrix in="blurOut" result="blurOut2" type="matrix" values="0 0 0 0 0 0 0 0 0 0 0 0 0 0 0 0 0 0 .4 0"/><feOffset dx="4.0" dy="4.0" in="blurOut2" result="blurOut3"/><feBlend in="SourceGraphic" in2="blurOut3" mode="normal"/></filter></defs><g><!--MD5=[2514e0f48e4b6e87e5d27c52bbadce1a]
cluster th--><polygon fill="#FFFFFF" filter="url(#f1855r83pwh5lj)" points="14,738,36,738,43,760.2969,106,760.2969,106,805,14,805,14,738" style="stroke: #000000; stroke-width: 1.5;"/><line style="stroke: #000000; stroke-width: 1.5;" x1="14" x2="43" y1="760.2969" y2="760.2969"/><text fill="#000000" font-family="sans-serif" font-size="14" font-weight="bold" lengthAdjust="spacingAndGlyphs" textLength="16" x="18" y="752.9951">th</text><!--MD5=[3dab47d3fc3e186ff10f67819eb99ff8]
cluster time--><polygon fill="#FFFFFF" filter="url(#f1855r83pwh5lj)" points="1182,738,1222,738,1229,760.2969,1258,760.2969,1258,805,1182,805,1182,738" style="stroke: #000000; stroke-width: 1.5;"/><line style="stroke: #000000; stroke-width: 1.5;" x1="1182" x2="1229" y1="760.2969" y2="760.2969"/><text fill="#000000" font-family="sans-serif" font-size="14" font-weight="bold" lengthAdjust="spacingAndGlyphs" textLength="34" x="1186" y="752.9951">time</text><!--MD5=[579757f8f423742ea24b3c6aa03668a6]
class th.Thread--><rect fill="#FEFECE" filter="url(#f1855r83pwh5lj)" height="32" id="th.Thread" style="stroke: #A80036; stroke-width: 1.5;" width="76" x="22" y="765"/><ellipse cx="37" cy="781" fill="#ADD1B2" rx="11" ry="11" style="stroke: #A80036; stroke-width: 1.0;"/><path d="M39.9688,786.6406 Q39.3906,786.9375 38.75,787.0781 Q38.1094,787.2344 37.4063,787.2344 Q34.9063,787.2344 33.5781,785.5938 Q32.2656,783.9375 32.2656,780.8125 Q32.2656,777.6875 33.5781,776.0313 Q34.9063,774.375 37.4063,774.375 Q38.1094,774.375 38.75,774.5313 Q39.4063,774.6875 39.9688,774.9844 L39.9688,777.7031 Q39.3438,777.125 38.75,776.8594 Q38.1563,776.5781 37.5313,776.5781 Q36.1875,776.5781 35.5,777.6563 Q34.8125,778.7188 34.8125,780.8125 Q34.8125,782.9063 35.5,783.9844 Q36.1875,785.0469 37.5313,785.0469 Q38.1563,785.0469 38.75,784.7813 Q39.3438,784.5 39.9688,783.9219 L39.9688,786.6406 Z "/><text fill="#000000" font-family="sans-serif" font-size="12" lengthAdjust="spacingAndGlyphs" textLength="44" x="51" y="785.1543">Thread</text><!--MD5=[3d73eea9d949cf898feb10f8b3df02d5]
class time.time--><rect fill="#FEFECE" filter="url(#f1855r83pwh5lj)" height="32" id="time.time" style="stroke: #A80036; stroke-width: 1.5;" width="59" x="1190.5" y="765"/><ellipse cx="1205.5" cy="781" fill="#ADD1B2" rx="11" ry="11" style="stroke: #A80036; stroke-width: 1.0;"/><path d="M1208.4688,786.6406 Q1207.8906,786.9375 1207.25,787.0781 Q1206.6094,787.2344 1205.9063,787.2344 Q1203.4063,787.2344 1202.0781,785.5938 Q1200.7656,783.9375 1200.7656,780.8125 Q1200.7656,777.6875 1202.0781,776.0313 Q1203.4063,774.375 1205.9063,774.375 Q1206.6094,774.375 1207.25,774.5313 Q1207.9063,774.6875 1208.4688,774.9844 L1208.4688,777.7031 Q1207.8438,777.125 1207.25,776.8594 Q1206.6563,776.5781 1206.0313,776.5781 Q1204.6875,776.5781 1204,777.6563 Q1203.3125,778.7188 1203.3125,780.8125 Q1203.3125,782.9063 1204,783.9844 Q1204.6875,785.0469 1206.0313,785.0469 Q1206.6563,785.0469 1207.25,784.7813 Q1207.8438,784.5 1208.4688,783.9219 L1208.4688,786.6406 Z "/><text fill="#000000" font-family="sans-serif" font-size="12" lengthAdjust="spacingAndGlyphs" textLength="27" x="1219.5" y="785.1543">time</text><!--MD5=[13069e10e4876b4e39d86d0898e1a6e0]
class ExeThrd--><rect fill="#FEFECE" filter="url(#f1855r83pwh5lj)" height="112.0234" id="ExeThrd" style="stroke: #A80036; stroke-width: 1.5;" width="82" x="133" y="725"/><ellipse cx="148" cy="741" fill="#ADD1B2" rx="11" ry="11" style="stroke: #A80036; stroke-width: 1.0;"/><path d="M150.9688,746.6406 Q150.3906,746.9375 149.75,747.0781 Q149.1094,747.2344 148.4063,747.2344 Q145.9063,747.2344 144.5781,745.5938 Q143.2656,743.9375 143.2656,740.8125 Q143.2656,737.6875 144.5781,736.0313 Q145.9063,734.375 148.4063,734.375 Q149.1094,734.375 149.75,734.5313 Q150.4063,734.6875 150.9688,734.9844 L150.9688,737.7031 Q150.3438,737.125 149.75,736.8594 Q149.1563,736.5781 148.5313,736.5781 Q147.1875,736.5781 146.5,737.6563 Q145.8125,738.7188 145.8125,740.8125 Q145.8125,742.9063 146.5,743.9844 Q147.1875,745.0469 148.5313,745.0469 Q149.1563,745.0469 149.75,744.7813 Q150.3438,744.5 150.9688,743.9219 L150.9688,746.6406 Z "/><text fill="#000000" font-family="sans-serif" font-size="12" lengthAdjust="spacingAndGlyphs" textLength="50" x="162" y="745.1543">ExeThrd</text><line style="stroke: #A80036; stroke-width: 1.5;" x1="134" x2="214" y1="757" y2="757"/><text fill="#000000" font-family="sans-serif" font-size="11" lengthAdjust="spacingAndGlyphs" textLength="62" x="139" y="771.2104">__exe_task</text><text fill="#000000" font-family="sans-serif" font-size="11" lengthAdjust="spacingAndGlyphs" textLength="50" x="139" y="784.0151">__kill_sig</text><line style="stroke: #A80036; stroke-width: 1.5;" x1="134" x2="214" y1="790.6094" y2="790.6094"/><text fill="#000000" font-family="sans-serif" font-size="11" lengthAdjust="spacingAndGlyphs" textLength="49" x="139" y="804.8198">__init__()</text><text fill="#000000" font-family="sans-serif" font-size="11" lengthAdjust="spacingAndGlyphs" textLength="38" x="139" y="817.6245">close()</text><text fill="#000000" font-family="sans-serif" font-size="11" lengthAdjust="spacingAndGlyphs" textLength="27" x="139" y="830.4292">run()</text><!--MD5=[fbb555a9b2965bafa7fbc2d3116ffcc1]
class ExeTask--><rect fill="#FEFECE" filter="url(#f1855r83pwh5lj)" height="32" id="ExeTask" style="stroke: #A80036; stroke-width: 1.5;" width="83" x="132.5" y="914"/><ellipse cx="147.5" cy="930" fill="#ADD1B2" rx="11" ry="11" style="stroke: #A80036; stroke-width: 1.0;"/><path d="M150.4688,935.6406 Q149.8906,935.9375 149.25,936.0781 Q148.6094,936.2344 147.9063,936.2344 Q145.4063,936.2344 144.0781,934.5938 Q142.7656,932.9375 142.7656,929.8125 Q142.7656,926.6875 144.0781,925.0313 Q145.4063,923.375 147.9063,923.375 Q148.6094,923.375 149.25,923.5313 Q149.9063,923.6875 150.4688,923.9844 L150.4688,926.7031 Q149.8438,926.125 149.25,925.8594 Q148.6563,925.5781 148.0313,925.5781 Q146.6875,925.5781 146,926.6563 Q145.3125,927.7188 145.3125,929.8125 Q145.3125,931.9063 146,932.9844 Q146.6875,934.0469 148.0313,934.0469 Q148.6563,934.0469 149.25,933.7813 Q149.8438,933.5 150.4688,932.9219 L150.4688,935.6406 Z "/><text fill="#000000" font-family="sans-serif" font-size="12" lengthAdjust="spacingAndGlyphs" textLength="51" x="161.5" y="934.1543">ExeTask</text><!--MD5=[84b158eee573c2a4336cae94377b2c13]
class _exe_thrd_py--><rect fill="#8FBC8F" filter="url(#f1855r83pwh5lj)" height="37.9375" id="_exe_thrd_py" style="stroke: #A80036; stroke-width: 1.5;" width="112" x="85" y="393.5"/><ellipse cx="100" cy="412.4688" fill="#DA70D6" rx="11" ry="11" style="stroke: #A80036; stroke-width: 1.0;"/><path d="M95.7188,406.0781 L98.6406,406.0781 L100.1094,411.5156 L101.5781,406.0781 L104.5156,406.0781 L104.5156,418.4688 L102.4063,418.4688 L102.4063,408.5469 L101.0938,413.9688 L99.1563,413.9688 L97.8281,408.5469 L97.8281,418.4688 L95.7188,418.4688 L95.7188,406.0781 Z "/><text fill="#000000" font-family="sans-serif" font-size="12" font-style="italic" lengthAdjust="spacingAndGlyphs" textLength="60" x="124" y="409.6387">«module»</text><text fill="#000000" font-family="sans-serif" font-size="12" lengthAdjust="spacingAndGlyphs" textLength="80" x="114" y="423.6074">_exe_thrd_py</text><!--MD5=[c2088cc3228195408f8c0e1330d9ddcd]
class MODI--><rect fill="#FEFECE" filter="url(#f1855r83pwh5lj)" height="406.5313" id="MODI" style="stroke: #A80036; stroke-width: 1.5;" width="158" x="254" y="209"/><ellipse cx="313.25" cy="225" fill="#ADD1B2" rx="11" ry="11" style="stroke: #A80036; stroke-width: 1.0;"/><path d="M316.2188,230.6406 Q315.6406,230.9375 315,231.0781 Q314.3594,231.2344 313.6563,231.2344 Q311.1563,231.2344 309.8281,229.5938 Q308.5156,227.9375 308.5156,224.8125 Q308.5156,221.6875 309.8281,220.0313 Q311.1563,218.375 313.6563,218.375 Q314.3594,218.375 315,218.5313 Q315.6563,218.6875 316.2188,218.9844 L316.2188,221.7031 Q315.5938,221.125 315,220.8594 Q314.4063,220.5781 313.7813,220.5781 Q312.4375,220.5781 311.75,221.6563 Q311.0625,222.7188 311.0625,224.8125 Q311.0625,226.9063 311.75,227.9844 Q312.4375,229.0469 313.7813,229.0469 Q314.4063,229.0469 315,228.7813 Q315.5938,228.5 316.2188,227.9219 L316.2188,230.6406 Z "/><text fill="#000000" font-family="sans-serif" font-size="12" lengthAdjust="spacingAndGlyphs" textLength="31" x="333.75" y="229.1543">MODI</text><line style="stroke: #A80036; stroke-width: 1.5;" x1="255" x2="411" y1="241" y2="241"/><text fill="#000000" font-family="sans-serif" font-size="11" lengthAdjust="spacingAndGlyphs" textLength="33" x="260" y="255.2104">_conn</text><text fill="#000000" font-family="sans-serif" font-size="11" lengthAdjust="spacingAndGlyphs" textLength="55" x="260" y="268.0151">_exe_thrd</text><text fill="#000000" font-family="sans-serif" font-size="11" lengthAdjust="spacingAndGlyphs" textLength="55" x="260" y="280.8198">_modules</text><text fill="#000000" font-family="sans-serif" font-size="11" lengthAdjust="spacingAndGlyphs" textLength="85" x="260" y="293.6245">_topology_data</text><text fill="#000000" font-family="sans-serif" font-size="11" lengthAdjust="spacingAndGlyphs" textLength="111" x="260" y="306.4292">_topology_manager</text><text fill="#000000" font-family="sans-serif" font-size="11" lengthAdjust="spacingAndGlyphs" textLength="43" x="260" y="319.2339">buttons</text><text fill="#000000" font-family="sans-serif" font-size="11" lengthAdjust="spacingAndGlyphs" textLength="27" x="260" y="332.0386">dials</text><text fill="#000000" font-family="sans-serif" font-size="11" lengthAdjust="spacingAndGlyphs" textLength="47" x="260" y="344.8433">displays</text><text fill="#000000" font-family="sans-serif" font-size="11" lengthAdjust="spacingAndGlyphs" textLength="27" x="260" y="357.6479">envs</text><text fill="#000000" font-family="sans-serif" font-size="11" lengthAdjust="spacingAndGlyphs" textLength="32" x="260" y="370.4526">gyros</text><text fill="#000000" font-family="sans-serif" font-size="11" lengthAdjust="spacingAndGlyphs" textLength="15" x="260" y="383.2573">irs</text><text fill="#000000" font-family="sans-serif" font-size="11" lengthAdjust="spacingAndGlyphs" textLength="24" x="260" y="396.062">leds</text><text fill="#000000" font-family="sans-serif" font-size="11" lengthAdjust="spacingAndGlyphs" textLength="27" x="260" y="408.8667">mics</text><text fill="#000000" font-family="sans-serif" font-size="11" lengthAdjust="spacingAndGlyphs" textLength="49" x="260" y="421.6714">modules</text><text fill="#000000" font-family="sans-serif" font-size="11" lengthAdjust="spacingAndGlyphs" textLength="41" x="260" y="434.4761">motors</text><text fill="#000000" font-family="sans-serif" font-size="11" lengthAdjust="spacingAndGlyphs" textLength="52" x="260" y="447.2808">networks</text><text fill="#000000" font-family="sans-serif" font-size="11" lengthAdjust="spacingAndGlyphs" textLength="53" x="260" y="460.0854">speakers</text><text fill="#000000" font-family="sans-serif" font-size="11" lengthAdjust="spacingAndGlyphs" textLength="63" x="260" y="472.8901">ultrasonics</text><line style="stroke: #A80036; stroke-width: 1.5;" x1="255" x2="411" y1="479.4844" y2="479.4844"/><text fill="#000000" font-family="sans-serif" font-size="11" lengthAdjust="spacingAndGlyphs" textLength="49" x="260" y="493.6948">__init__()</text><text fill="#000000" font-family="sans-serif" font-size="11" lengthAdjust="spacingAndGlyphs" textLength="67" x="260" y="506.4995">__init_task()</text><text fill="#000000" font-family="sans-serif" font-size="11" lengthAdjust="spacingAndGlyphs" textLength="146" x="260" y="519.3042">__wait_user_code_check()</text><text fill="#000000" font-family="sans-serif" font-size="11" lengthAdjust="spacingAndGlyphs" textLength="38" x="260" y="532.1089">close()</text><text fill="#000000" font-family="sans-serif" font-size="11" lengthAdjust="spacingAndGlyphs" textLength="94" x="260" y="544.9136">is_not_checked()</text><text fill="#000000" font-family="sans-serif" font-size="11" lengthAdjust="spacingAndGlyphs" textLength="36" x="260" y="557.7183">open()</text><text fill="#000000" font-family="sans-serif" font-size="11" lengthAdjust="spacingAndGlyphs" textLength="119" x="260" y="570.5229">print_topology_map()</text><text fill="#000000" font-family="sans-serif" font-size="11" lengthAdjust="spacingAndGlyphs" textLength="32" x="260" y="583.3276">recv()</text><text fill="#000000" font-family="sans-serif" font-size="11" lengthAdjust="spacingAndGlyphs" textLength="36" x="260" y="596.1323">send()</text><text fill="#000000" font-family="sans-serif" font-size="11" lengthAdjust="spacingAndGlyphs" textLength="111" x="260" y="608.937">upload_user_code()</text><!--MD5=[c4879cd5b17c6ac78da17e3108445ee2]
class TopologyManager--><rect fill="#FEFECE" filter="url(#f1855r83pwh5lj)" height="32" id="TopologyManager" style="stroke: #A80036; stroke-width: 1.5;" width="143" x="283.5" y="765"/><ellipse cx="298.5" cy="781" fill="#ADD1B2" rx="11" ry="11" style="stroke: #A80036; stroke-width: 1.0;"/><path d="M301.4688,786.6406 Q300.8906,786.9375 300.25,787.0781 Q299.6094,787.2344 298.9063,787.2344 Q296.4063,787.2344 295.0781,785.5938 Q293.7656,783.9375 293.7656,780.8125 Q293.7656,777.6875 295.0781,776.0313 Q296.4063,774.375 298.9063,774.375 Q299.6094,774.375 300.25,774.5313 Q300.9063,774.6875 301.4688,774.9844 L301.4688,777.7031 Q300.8438,777.125 300.25,776.8594 Q299.6563,776.5781 299.0313,776.5781 Q297.6875,776.5781 297,777.6563 Q296.3125,778.7188 296.3125,780.8125 Q296.3125,782.9063 297,783.9844 Q297.6875,785.0469 299.0313,785.0469 Q299.6563,785.0469 300.25,784.7813 Q300.8438,784.5 301.4688,783.9219 L301.4688,786.6406 Z "/><text fill="#000000" font-family="sans-serif" font-size="12" lengthAdjust="spacingAndGlyphs" textLength="111" x="312.5" y="785.1543">TopologyManager</text><!--MD5=[ab0a0d22d6fedfe07975a5211532208f]
class modi_py--><rect fill="#8FBC8F" filter="url(#f1855r83pwh5lj)" height="92.3516" id="modi_py" style="stroke: #A80036; stroke-width: 1.5;" width="167" x="453.5" y="8"/><ellipse cx="504.75" cy="26.9688" fill="#DA70D6" rx="11" ry="11" style="stroke: #A80036; stroke-width: 1.0;"/><path d="M500.4688,20.5781 L503.3906,20.5781 L504.8594,26.0156 L506.3281,20.5781 L509.2656,20.5781 L509.2656,32.9688 L507.1563,32.9688 L507.1563,23.0469 L505.8438,28.4688 L503.9063,28.4688 L502.5781,23.0469 L502.5781,32.9688 L500.4688,32.9688 L500.4688,20.5781 Z "/><text fill="#000000" font-family="sans-serif" font-size="12" font-style="italic" lengthAdjust="spacingAndGlyphs" textLength="60" x="523.25" y="24.1387">«module»</text><text fill="#000000" font-family="sans-serif" font-size="12" lengthAdjust="spacingAndGlyphs" textLength="50" x="528.25" y="38.1074">modi_py</text><line style="stroke: #A80036; stroke-width: 1.5;" x1="454.5" x2="619.5" y1="45.9375" y2="45.9375"/><line style="stroke: #A80036; stroke-width: 1.0;" x1="454.5" x2="619.5" y1="53.9375" y2="53.9375"/><text fill="#000000" font-family="sans-serif" font-size="11" lengthAdjust="spacingAndGlyphs" textLength="143" x="459.5" y="68.1479">reset_module_firmware()</text><text fill="#000000" font-family="sans-serif" font-size="11" lengthAdjust="spacingAndGlyphs" textLength="152" x="459.5" y="80.9526">update_module_firmware()</text><text fill="#000000" font-family="sans-serif" font-size="11" lengthAdjust="spacingAndGlyphs" textLength="155" x="459.5" y="93.7573">update_network_firmware()</text><!--MD5=[9811db1be154805f176770d1129056ff]
class STM32FirmwareUpdater--><rect fill="#FEFECE" filter="url(#f1855r83pwh5lj)" height="32" id="STM32FirmwareUpdater" style="stroke: #A80036; stroke-width: 1.5;" width="180" x="447" y="396.5"/><ellipse cx="462" cy="412.5" fill="#ADD1B2" rx="11" ry="11" style="stroke: #A80036; stroke-width: 1.0;"/><path d="M464.9688,418.1406 Q464.3906,418.4375 463.75,418.5781 Q463.1094,418.7344 462.4063,418.7344 Q459.9063,418.7344 458.5781,417.0938 Q457.2656,415.4375 457.2656,412.3125 Q457.2656,409.1875 458.5781,407.5313 Q459.9063,405.875 462.4063,405.875 Q463.1094,405.875 463.75,406.0313 Q464.4063,406.1875 464.9688,406.4844 L464.9688,409.2031 Q464.3438,408.625 463.75,408.3594 Q463.1563,408.0781 462.5313,408.0781 Q461.1875,408.0781 460.5,409.1563 Q459.8125,410.2188 459.8125,412.3125 Q459.8125,414.4063 460.5,415.4844 Q461.1875,416.5469 462.5313,416.5469 Q463.1563,416.5469 463.75,416.2813 Q464.3438,416 464.9688,415.4219 L464.9688,418.1406 Z "/><text fill="#000000" font-family="sans-serif" font-size="12" lengthAdjust="spacingAndGlyphs" textLength="148" x="476" y="416.6543">STM32FirmwareUpdater</text><!--MD5=[fa59ce694715dcc7435d0be39c1bb3d6]
class ESP32FirmwareUpdater--><rect fill="#FEFECE" filter="url(#f1855r83pwh5lj)" height="32" id="ESP32FirmwareUpdater" style="stroke: #A80036; stroke-width: 1.5;" width="179" x="662.5" y="396.5"/><ellipse cx="677.5" cy="412.5" fill="#ADD1B2" rx="11" ry="11" style="stroke: #A80036; stroke-width: 1.0;"/><path d="M680.4688,418.1406 Q679.8906,418.4375 679.25,418.5781 Q678.6094,418.7344 677.9063,418.7344 Q675.4063,418.7344 674.0781,417.0938 Q672.7656,415.4375 672.7656,412.3125 Q672.7656,409.1875 674.0781,407.5313 Q675.4063,405.875 677.9063,405.875 Q678.6094,405.875 679.25,406.0313 Q679.9063,406.1875 680.4688,406.4844 L680.4688,409.2031 Q679.8438,408.625 679.25,408.3594 Q678.6563,408.0781 678.0313,408.0781 Q676.6875,408.0781 676,409.1563 Q675.3125,410.2188 675.3125,412.3125 Q675.3125,414.4063 676,415.4844 Q676.6875,416.5469 678.0313,416.5469 Q678.6563,416.5469 679.25,416.2813 Q679.8438,416 680.4688,415.4219 L680.4688,418.1406 Z "/><text fill="#000000" font-family="sans-serif" font-size="12" lengthAdjust="spacingAndGlyphs" textLength="147" x="691.5" y="416.6543">ESP32FirmwareUpdater</text><!--MD5=[2b7409a316d9d2e410653e6983353aed]
class Module--><rect fill="#FEFECE" filter="url(#f1855r83pwh5lj)" height="470.5547" id="Module" style="stroke: #A80036; stroke-width: 1.5;" width="159" x="1096.5" y="177"/><ellipse cx="1149.25" cy="193" fill="#ADD1B2" rx="11" ry="11" style="stroke: #A80036; stroke-width: 1.0;"/><path d="M1152.2188,198.6406 Q1151.6406,198.9375 1151,199.0781 Q1150.3594,199.2344 1149.6563,199.2344 Q1147.1563,199.2344 1145.8281,197.5938 Q1144.5156,195.9375 1144.5156,192.8125 Q1144.5156,189.6875 1145.8281,188.0313 Q1147.1563,186.375 1149.6563,186.375 Q1150.3594,186.375 1151,186.5313 Q1151.6563,186.6875 1152.2188,186.9844 L1152.2188,189.7031 Q1151.5938,189.125 1151,188.8594 Q1150.4063,188.5781 1149.7813,188.5781 Q1148.4375,188.5781 1147.75,189.6563 Q1147.0625,190.7188 1147.0625,192.8125 Q1147.0625,194.9063 1147.75,195.9844 Q1148.4375,197.0469 1149.7813,197.0469 Q1150.4063,197.0469 1151,196.7813 Q1151.5938,196.5 1152.2188,195.9219 L1152.2188,198.6406 Z "/><text fill="#000000" font-family="sans-serif" font-size="12" lengthAdjust="spacingAndGlyphs" textLength="45" x="1169.75" y="197.1543">Module</text><line style="stroke: #A80036; stroke-width: 1.5;" x1="1097.5" x2="1254.5" y1="209" y2="209"/><text fill="#000000" font-family="sans-serif" font-size="11" lengthAdjust="spacingAndGlyphs" textLength="74" x="1102.5" y="223.2104">ERROR_STOP</text><text fill="#000000" font-family="sans-serif" font-size="11" lengthAdjust="spacingAndGlyphs" textLength="88" x="1102.5" y="236.0151">FORCED_PAUSE</text><text fill="#000000" font-family="sans-serif" font-size="11" lengthAdjust="spacingAndGlyphs" textLength="49" x="1102.5" y="248.8198">PNP_OFF</text><text fill="#000000" font-family="sans-serif" font-size="11" lengthAdjust="spacingAndGlyphs" textLength="45" x="1102.5" y="261.6245">PNP_ON</text><text fill="#000000" font-family="sans-serif" font-size="11" lengthAdjust="spacingAndGlyphs" textLength="47" x="1102.5" y="274.4292">REBOOT</text><text fill="#000000" font-family="sans-serif" font-size="11" lengthAdjust="spacingAndGlyphs" textLength="23" x="1102.5" y="287.2339">RUN</text><text fill="#000000" font-family="sans-serif" font-size="11" lengthAdjust="spacingAndGlyphs" textLength="105" x="1102.5" y="300.0386">UPDATE_FIRMWARE</text><text fill="#000000" font-family="sans-serif" font-size="11" lengthAdjust="spacingAndGlyphs" textLength="147" x="1102.5" y="312.8433">UPDATE_FIRMWARE_READY</text><text fill="#000000" font-family="sans-serif" font-size="11" lengthAdjust="spacingAndGlyphs" textLength="51" x="1102.5" y="325.6479">WARNING</text><text fill="#000000" font-family="sans-serif" font-size="11" lengthAdjust="spacingAndGlyphs" textLength="54" x="1102.5" y="338.4526">__version</text><text fill="#000000" font-family="sans-serif" font-size="11" lengthAdjust="spacingAndGlyphs" textLength="33" x="1102.5" y="351.2573">_conn</text><text fill="#000000" font-family="sans-serif" font-size="11" lengthAdjust="spacingAndGlyphs" textLength="16" x="1102.5" y="364.062">_id</text><text fill="#000000" font-family="sans-serif" font-size="11" lengthAdjust="spacingAndGlyphs" textLength="65" x="1102.5" y="376.8667">_properties</text><text fill="#000000" font-family="sans-serif" font-size="11" lengthAdjust="spacingAndGlyphs" textLength="30" x="1102.5" y="389.6714">_uuid</text><text fill="#000000" font-family="sans-serif" font-size="11" lengthAdjust="spacingAndGlyphs" textLength="40" x="1102.5" y="402.4761">battery</text><text fill="#000000" font-family="sans-serif" font-size="11" lengthAdjust="spacingAndGlyphs" textLength="86" x="1102.5" y="415.2808">has_user_code</text><text fill="#000000" font-family="sans-serif" font-size="11" lengthAdjust="spacingAndGlyphs" textLength="10" x="1102.5" y="428.0854">id</text><text fill="#000000" font-family="sans-serif" font-size="11" lengthAdjust="spacingAndGlyphs" textLength="74" x="1102.5" y="440.8901">is_connected</text><text fill="#000000" font-family="sans-serif" font-size="11" lengthAdjust="spacingAndGlyphs" textLength="78" x="1102.5" y="453.6948">is_up_to_date</text><text fill="#000000" font-family="sans-serif" font-size="11" lengthAdjust="spacingAndGlyphs" textLength="73" x="1102.5" y="466.4995">last_updated</text><text fill="#000000" font-family="sans-serif" font-size="11" lengthAdjust="spacingAndGlyphs" textLength="72" x="1102.5" y="479.3042">module_type</text><text fill="#000000" font-family="sans-serif" font-size="11" lengthAdjust="spacingAndGlyphs" textLength="31" x="1102.5" y="492.1089">order</text><text fill="#000000" font-family="sans-serif" font-size="11" lengthAdjust="spacingAndGlyphs" textLength="45" x="1102.5" y="504.9136">position</text><text fill="#000000" font-family="sans-serif" font-size="11" lengthAdjust="spacingAndGlyphs" textLength="101" x="1102.5" y="517.7183">user_code_status</text><text fill="#000000" font-family="sans-serif" font-size="11" lengthAdjust="spacingAndGlyphs" textLength="24" x="1102.5" y="530.5229">uuid</text><text fill="#000000" font-family="sans-serif" font-size="11" lengthAdjust="spacingAndGlyphs" textLength="42" x="1102.5" y="543.3276">version</text><line style="stroke: #A80036; stroke-width: 1.5;" x1="1097.5" x2="1254.5" y1="549.9219" y2="549.9219"/><text fill="#000000" font-family="sans-serif" font-size="11" lengthAdjust="spacingAndGlyphs" textLength="43" x="1102.5" y="564.1323">__gt__()</text><text fill="#000000" font-family="sans-serif" font-size="11" lengthAdjust="spacingAndGlyphs" textLength="49" x="1102.5" y="576.937">__init__()</text><text fill="#000000" font-family="sans-serif" font-size="11" lengthAdjust="spacingAndGlyphs" textLength="39" x="1102.5" y="589.7417">__lt__()</text><text fill="#000000" font-family="sans-serif" font-size="11" lengthAdjust="spacingAndGlyphs" textLength="118" x="1102.5" y="602.5464">__request_property()</text><text fill="#000000" font-family="sans-serif" font-size="11" lengthAdjust="spacingAndGlyphs" textLength="48" x="1102.5" y="615.3511">__str__()</text><text fill="#000000" font-family="sans-serif" font-size="11" lengthAdjust="spacingAndGlyphs" textLength="86" x="1102.5" y="628.1558">_get_property()</text><text fill="#000000" font-family="sans-serif" font-size="11" lengthAdjust="spacingAndGlyphs" textLength="101" x="1102.5" y="640.9604">update_property()</text><!--MD5=[6b626634f3bb0842bebd5e499c80b711]
class Property--><rect fill="#FEFECE" filter="url(#f1855r83pwh5lj)" height="86.4141" id="Property" style="stroke: #A80036; stroke-width: 1.5;" width="109" x="1290.5" y="369.5"/><ellipse cx="1316.3" cy="385.5" fill="#ADD1B2" rx="11" ry="11" style="stroke: #A80036; stroke-width: 1.0;"/><path d="M1319.2688,391.1406 Q1318.6906,391.4375 1318.05,391.5781 Q1317.4094,391.7344 1316.7063,391.7344 Q1314.2063,391.7344 1312.8781,390.0938 Q1311.5656,388.4375 1311.5656,385.3125 Q1311.5656,382.1875 1312.8781,380.5313 Q1314.2063,378.875 1316.7063,378.875 Q1317.4094,378.875 1318.05,379.0313 Q1318.7063,379.1875 1319.2688,379.4844 L1319.2688,382.2031 Q1318.6438,381.625 1318.05,381.3594 Q1317.4563,381.0781 1316.8313,381.0781 Q1315.4875,381.0781 1314.8,382.1563 Q1314.1125,383.2188 1314.1125,385.3125 Q1314.1125,387.4063 1314.8,388.4844 Q1315.4875,389.5469 1316.8313,389.5469 Q1317.4563,389.5469 1318.05,389.2813 Q1318.6438,389 1319.2688,388.4219 L1319.2688,391.1406 Z "/><text fill="#000000" font-family="sans-serif" font-size="12" lengthAdjust="spacingAndGlyphs" textLength="53" x="1332.7" y="389.6543">Property</text><line style="stroke: #A80036; stroke-width: 1.5;" x1="1291.5" x2="1398.5" y1="401.5" y2="401.5"/><text fill="#000000" font-family="sans-serif" font-size="11" lengthAdjust="spacingAndGlyphs" textLength="97" x="1296.5" y="415.7104">last_update_time</text><text fill="#000000" font-family="sans-serif" font-size="11" lengthAdjust="spacingAndGlyphs" textLength="30" x="1296.5" y="428.5151">value</text><line style="stroke: #A80036; stroke-width: 1.5;" x1="1291.5" x2="1398.5" y1="435.1094" y2="435.1094"/><text fill="#000000" font-family="sans-serif" font-size="11" lengthAdjust="spacingAndGlyphs" textLength="49" x="1296.5" y="449.3198">__init__()</text><!--MD5=[497eac8eee555f191daedfe992bd6bba]
class module_py--><rect fill="#8FBC8F" filter="url(#f1855r83pwh5lj)" height="58.7422" id="module_py" style="stroke: #A80036; stroke-width: 1.5;" width="98" x="1211" y="24.5"/><ellipse cx="1226" cy="43.4688" fill="#DA70D6" rx="11" ry="11" style="stroke: #A80036; stroke-width: 1.0;"/><path d="M1221.7188,37.0781 L1224.6406,37.0781 L1226.1094,42.5156 L1227.5781,37.0781 L1230.5156,37.0781 L1230.5156,49.4688 L1228.4063,49.4688 L1228.4063,39.5469 L1227.0938,44.9688 L1225.1563,44.9688 L1223.8281,39.5469 L1223.8281,49.4688 L1221.7188,49.4688 L1221.7188,37.0781 Z "/><text fill="#000000" font-family="sans-serif" font-size="12" font-style="italic" lengthAdjust="spacingAndGlyphs" textLength="60" x="1243" y="40.6387">«module»</text><text fill="#000000" font-family="sans-serif" font-size="12" lengthAdjust="spacingAndGlyphs" textLength="66" x="1240" y="54.6074">module_py</text><line style="stroke: #A80036; stroke-width: 1.5;" x1="1212" x2="1308" y1="62.4375" y2="62.4375"/><text fill="#000000" font-family="sans-serif" font-size="11" lengthAdjust="spacingAndGlyphs" textLength="86" x="1217" y="76.6479">BROADCAST_ID</text><!--MD5=[a72fadcd0412b9b6c1531059cec5e00e]
class ConnTask--><rect fill="#FEFECE" filter="url(#f1855r83pwh5lj)" height="176.0469" id="ConnTask" style="stroke: #A80036; stroke-width: 1.5;" width="93" x="968.5" y="324.5"/><ellipse cx="983.5" cy="340.5" fill="#ADD1B2" rx="11" ry="11" style="stroke: #A80036; stroke-width: 1.0;"/><path d="M986.4688,346.1406 Q985.8906,346.4375 985.25,346.5781 Q984.6094,346.7344 983.9063,346.7344 Q981.4063,346.7344 980.0781,345.0938 Q978.7656,343.4375 978.7656,340.3125 Q978.7656,337.1875 980.0781,335.5313 Q981.4063,333.875 983.9063,333.875 Q984.6094,333.875 985.25,334.0313 Q985.9063,334.1875 986.4688,334.4844 L986.4688,337.2031 Q985.8438,336.625 985.25,336.3594 Q984.6563,336.0781 984.0313,336.0781 Q982.6875,336.0781 982,337.1563 Q981.3125,338.2188 981.3125,340.3125 Q981.3125,342.4063 982,343.4844 Q982.6875,344.5469 984.0313,344.5469 Q984.6563,344.5469 985.25,344.2813 Q985.8438,344 986.4688,343.4219 L986.4688,346.1406 Z "/><text fill="#000000" font-family="sans-serif" font-size="12" lengthAdjust="spacingAndGlyphs" textLength="61" x="997.5" y="344.6543">ConnTask</text><line style="stroke: #A80036; stroke-width: 1.5;" x1="969.5" x2="1060.5" y1="356.5" y2="356.5"/><text fill="#000000" font-family="sans-serif" font-size="11" lengthAdjust="spacingAndGlyphs" textLength="27" x="974.5" y="370.7104">_bus</text><text fill="#000000" font-family="sans-serif" font-size="11" lengthAdjust="spacingAndGlyphs" textLength="21" x="974.5" y="383.5151">bus</text><text fill="#000000" font-family="sans-serif" font-size="11" lengthAdjust="spacingAndGlyphs" textLength="46" x="974.5" y="396.3198">verbose</text><line style="stroke: #A80036; stroke-width: 1.5;" x1="969.5" x2="1060.5" y1="402.9141" y2="402.9141"/><text fill="#000000" font-family="sans-serif" font-size="11" lengthAdjust="spacingAndGlyphs" textLength="49" x="974.5" y="417.1245">__init__()</text><text fill="#000000" font-family="sans-serif" font-size="11" lengthAdjust="spacingAndGlyphs" textLength="71" x="974.5" y="429.9292">close_conn()</text><text fill="#000000" font-family="sans-serif" font-size="11" lengthAdjust="spacingAndGlyphs" textLength="63" x="974.5" y="442.7339">decorator()</text><text fill="#000000" font-family="sans-serif" font-size="11" lengthAdjust="spacingAndGlyphs" textLength="69" x="974.5" y="455.5386">open_conn()</text><text fill="#000000" font-family="sans-serif" font-size="11" lengthAdjust="spacingAndGlyphs" textLength="32" x="974.5" y="468.3433">recv()</text><text fill="#000000" font-family="sans-serif" font-size="11" lengthAdjust="spacingAndGlyphs" textLength="36" x="974.5" y="481.1479">send()</text><text fill="#000000" font-family="sans-serif" font-size="11" lengthAdjust="spacingAndGlyphs" textLength="31" x="974.5" y="493.9526">wait()</text><!--MD5=[af2c5ce85c02d1716125757f0fa1792e]
class ABC--><rect fill="#FEFECE" filter="url(#f1855r83pwh5lj)" height="32" id="ABC" style="stroke: #A80036; stroke-width: 1.5;" width="56" x="877" y="396.5"/><ellipse cx="892" cy="412.5" fill="#ADD1B2" rx="11" ry="11" style="stroke: #A80036; stroke-width: 1.0;"/><path d="M894.9688,418.1406 Q894.3906,418.4375 893.75,418.5781 Q893.1094,418.7344 892.4063,418.7344 Q889.9063,418.7344 888.5781,417.0938 Q887.2656,415.4375 887.2656,412.3125 Q887.2656,409.1875 888.5781,407.5313 Q889.9063,405.875 892.4063,405.875 Q893.1094,405.875 893.75,406.0313 Q894.4063,406.1875 894.9688,406.4844 L894.9688,409.2031 Q894.3438,408.625 893.75,408.3594 Q893.1563,408.0781 892.5313,408.0781 Q891.1875,408.0781 890.5,409.1563 Q889.8125,410.2188 889.8125,412.3125 Q889.8125,414.4063 890.5,415.4844 Q891.1875,416.5469 892.5313,416.5469 Q893.1563,416.5469 893.75,416.2813 Q894.3438,416 894.9688,415.4219 L894.9688,418.1406 Z "/><text fill="#000000" font-family="sans-serif" font-size="12" lengthAdjust="spacingAndGlyphs" textLength="24" x="906" y="416.6543">ABC</text><!--MD5=[07bc994faec34da6adfbe6194d1cce1b]
class conn_task_py--><rect fill="#8FBC8F" filter="url(#f1855r83pwh5lj)" height="37.9375" id="conn_task_py" style="stroke: #A80036; stroke-width: 1.5;" width="116" x="957" y="35"/><ellipse cx="972" cy="53.9688" fill="#DA70D6" rx="11" ry="11" style="stroke: #A80036; stroke-width: 1.0;"/><path d="M967.7188,47.5781 L970.6406,47.5781 L972.1094,53.0156 L973.5781,47.5781 L976.5156,47.5781 L976.5156,59.9688 L974.4063,59.9688 L974.4063,50.0469 L973.0938,55.4688 L971.1563,55.4688 L969.8281,50.0469 L969.8281,59.9688 L967.7188,59.9688 L967.7188,47.5781 Z "/><text fill="#000000" font-family="sans-serif" font-size="12" font-style="italic" lengthAdjust="spacingAndGlyphs" textLength="60" x="998" y="51.1387">«module»</text><text fill="#000000" font-family="sans-serif" font-size="12" lengthAdjust="spacingAndGlyphs" textLength="84" x="986" y="65.1074">conn_task_py</text><!--MD5=[8b7445b4075f8a4ea0bd32d929275027]
reverse link th.Thread to ExeThrd--><path d="M118.2992,781 C123.1647,781 128.0301,781 132.8956,781 " fill="none" id="th.Thread&lt;-ExeThrd" style="stroke: #A80036; stroke-width: 1.0;"/><polygon fill="none" points="118.2969,787.9999,98.2969,781,118.2968,773.9999,118.2969,787.9999" style="stroke: #A80036; stroke-width: 1.0;"/><!--MD5=[0cf2830fbee4a08e9e3cfbed6974576e]
link ExeThrd to ExeTask--><path d="M174,849.3305 C174,849.3305 174,886.2516 174,900.7309 " fill="none" id="ExeThrd-ExeTask" style="stroke: #A80036; stroke-width: 1.0;"/><polygon fill="#A80036" points="174,913.8374,178,904.8374,174,908.8374,170,904.8374,174,913.8374" style="stroke: #A80036; stroke-width: 1.0;"/><line style="stroke: #A80036; stroke-width: 1.0;" x1="174" x2="174.0001" y1="908.8374" y2="900.8374"/><polygon fill="#A80036" points="174,837.3305,170,843.3305,174,849.3305,178,843.3305,174,837.3305" style="stroke: #A80036; stroke-width: 1.0;"/><text fill="#000000" font-family="sans-serif" font-size="13" lengthAdjust="spacingAndGlyphs" textLength="71" x="175" y="880.0669">__exe_task</text><!--MD5=[cc6b195bbca2269f1c19fb4f2dd00320]
link _exe_thrd_py to ExeThrd--><path d="M138.099,431.5985 C131.7021,477.5375 118.441,597.6229 138,695 C139.9762,704.8388 143.1067,714.9562 146.7166,724.6402 " fill="none" id="_exe_thrd_py-ExeThrd" style="stroke: #A80036; stroke-width: 1.0; stroke-dasharray: 7.0,7.0;"/><text fill="#000000" font-family="sans-serif" font-size="13" lengthAdjust="spacingAndGlyphs" textLength="54" x="139" y="691.0669">contains</text><polygon fill="#000000" points="161.5,700.1328,164.5,706.1328,167.5,700.1328,161.5,700.1328" style="stroke: #000000; stroke-width: 1.0;"/><!--MD5=[eaf83e8d2c9ece3004a558b7124ec51a]
link MODI to ExeThrd--><path d="M249.2117,606.6885 C249.2117,606.6885 216.502,682.4969 203.5109,712.6052 " fill="none" id="MODI-ExeThrd" style="stroke: #A80036; stroke-width: 1.0;"/><polygon fill="#A80036" points="198.319,724.6379,205.5573,717.959,200.2999,720.047,198.2119,714.7896,198.319,724.6379" style="stroke: #A80036; stroke-width: 1.0;"/><line style="stroke: #A80036; stroke-width: 1.0;" x1="200.2999" x2="203.4694" y1="720.047" y2="712.7016"/><polygon fill="#A80036" points="253.9658,595.6704,247.916,599.5947,249.2117,606.6885,255.2614,602.7642,253.9658,595.6704" style="stroke: #A80036; stroke-width: 1.0;"/><text fill="#000000" font-family="sans-serif" font-size="13" lengthAdjust="spacingAndGlyphs" textLength="63" x="218" y="691.0669">_exe_thrd</text><!--MD5=[4b9f588c1fa3fa3d5097d3b297d46440]
link MODI to TopologyManager--><path d="M345.8735,628.1293 C345.8735,628.1293 351.5503,723.2177 353.239,751.5033 " fill="none" id="MODI-TopologyManager" style="stroke: #A80036; stroke-width: 1.0;"/><polygon fill="#A80036" points="354.0241,764.6531,357.4805,755.4307,353.7261,759.662,349.4948,755.9075,354.0241,764.6531" style="stroke: #A80036; stroke-width: 1.0;"/><line style="stroke: #A80036; stroke-width: 1.0;" x1="353.7261" x2="353.2492" y1="759.662" y2="751.6762"/><polygon fill="#A80036" points="345.1582,616.1506,341.5229,622.3784,345.8735,628.1293,349.5087,621.9015,345.1582,616.1506" style="stroke: #A80036; stroke-width: 1.0;"/><text fill="#000000" font-family="sans-serif" font-size="13" lengthAdjust="spacingAndGlyphs" textLength="127" x="351" y="691.0669">_topology_manager</text><!--MD5=[4383090306410d67a6aca94ea0ef32d5]
link modi_py to MODI--><path d="M486.9318,100.3795 C477.6096,109.846 468.2247,119.9839 460,130 C440.5487,153.6879 423.4631,180.8324 408.6542,208.72 " fill="none" id="modi_py-MODI" style="stroke: #A80036; stroke-width: 1.0; stroke-dasharray: 7.0,7.0;"/><text fill="#000000" font-family="sans-serif" font-size="13" lengthAdjust="spacingAndGlyphs" textLength="54" x="461" y="143.0669">contains</text><polygon fill="#000000" points="483.5,152.1328,486.5,158.1328,489.5,152.1328,483.5,152.1328" style="stroke: #000000; stroke-width: 1.0;"/><!--MD5=[fcfa53bc808959277d9628b30445b72f]
link modi_py to STM32FirmwareUpdater--><path d="M537,100.1337 C537,178.3609 537,334.0786 537,391.0123 " fill="none" id="modi_py-&gt;STM32FirmwareUpdater" style="stroke: #A80036; stroke-width: 1.0;"/><polygon fill="#A80036" points="537,396.2077,541,387.2077,537,391.2077,533,387.2077,537,396.2077" style="stroke: #A80036; stroke-width: 1.0;"/><text fill="#000000" font-family="sans-serif" font-size="13" lengthAdjust="spacingAndGlyphs" textLength="30" x="538" y="143.0669">uses</text><!--MD5=[ef855e33215bf0f137003e462522f974]
link modi_py to ESP32FirmwareUpdater--><path d="M582.8298,100.2342 C603.1732,122.2903 626.4312,149.7681 644,177 C691.5672,250.7296 729.3511,348.8356 744.6422,391.3587 " fill="none" id="modi_py-&gt;ESP32FirmwareUpdater" style="stroke: #A80036; stroke-width: 1.0;"/><polygon fill="#A80036" points="746.3946,396.2636,747.133,386.4425,744.7122,391.5552,739.5995,389.1344,746.3946,396.2636" style="stroke: #A80036; stroke-width: 1.0;"/><text fill="#000000" font-family="sans-serif" font-size="13" lengthAdjust="spacingAndGlyphs" textLength="30" x="622" y="143.0669">uses</text><!--MD5=[d324479f8c09f921ff2defe8bccdd26e]
link Module to time.time--><path d="M1093.6259,579.9143 C1093.6259,579.9143 1085.1347,659.696 1103,695 C1118.744,726.1121 1151.63,748.7099 1178.5384,762.9116 " fill="none" id="Module-time.time" style="stroke: #A80036; stroke-width: 1.0;"/><polygon fill="#A80036" points="1190.398,768.8463,1184.1396,761.2415,1185.9266,766.6087,1180.5595,768.3958,1190.398,768.8463" style="stroke: #A80036; stroke-width: 1.0;"/><line style="stroke: #A80036; stroke-width: 1.0;" x1="1185.9266" x2="1178.7724" y1="766.6087" y2="763.0287"/><polygon fill="#A80036" points="1096.4485,568.251,1091.1494,573.1418,1093.6259,579.9143,1098.925,575.0235,1096.4485,568.251" style="stroke: #A80036; stroke-width: 1.0;"/><text fill="#000000" font-family="sans-serif" font-size="13" lengthAdjust="spacingAndGlyphs" textLength="72" x="1104" y="691.0669">_properties</text><!--MD5=[d324479f8c09f921ff2defe8bccdd26e]
link Module to time.time--><path d="M1205.5689,660.1387 C1205.5689,660.1387 1213.864,729.6113 1216.4855,751.5665 " fill="none" id="Module-time.time-1" style="stroke: #A80036; stroke-width: 1.0;"/><polygon fill="#A80036" points="1218.0571,764.7279,1220.9617,755.3171,1217.4642,759.7632,1213.0182,756.2657,1218.0571,764.7279" style="stroke: #A80036; stroke-width: 1.0;"/><line style="stroke: #A80036; stroke-width: 1.0;" x1="1217.4642" x2="1216.5157" y1="759.7632" y2="751.8196"/><polygon fill="#A80036" points="1204.1461,648.2234,1200.8857,654.6554,1205.5689,660.1387,1208.8293,653.7068,1204.1461,648.2234" style="stroke: #A80036; stroke-width: 1.0;"/><text fill="#000000" font-family="sans-serif" font-size="13" lengthAdjust="spacingAndGlyphs" textLength="83" x="1211" y="691.0669">last_updated</text><!--MD5=[563ba856e025c56c8ee385f8166a6f54]
link Property to time.time--><path d="M1346.5363,467.5759 C1346.5363,467.5759 1338.6684,622.575 1303,695 C1291.1215,719.1194 1270.0049,740.8543 1252.0447,756.4397 " fill="none" id="Property-time.time" style="stroke: #A80036; stroke-width: 1.0;"/><polygon fill="#A80036" points="1241.9284,764.8771,1251.402,762.1844,1245.7682,761.6746,1246.278,756.0407,1241.9284,764.8771" style="stroke: #A80036; stroke-width: 1.0;"/><line style="stroke: #A80036; stroke-width: 1.0;" x1="1245.7682" x2="1251.9118" y1="761.6746" y2="756.5505"/><polygon fill="#A80036" points="1346.5578,455.5759,1342.5471,461.5687,1346.5363,467.5759,1350.547,461.5831,1346.5578,455.5759" style="stroke: #A80036; stroke-width: 1.0;"/><text fill="#000000" font-family="sans-serif" font-size="13" lengthAdjust="spacingAndGlyphs" textLength="111" x="1311" y="691.0669">last_update_time</text><!--MD5=[de8064f3faeb453dc3e041591c51a40c]
link module_py to Module--><path d="M1240.4358,83.544 C1232.2822,97.1647 1223.4592,113.8635 1218,130 C1212.9151,145.0301 1208.4452,160.7167 1204.5159,176.6609 " fill="none" id="module_py-Module" style="stroke: #A80036; stroke-width: 1.0; stroke-dasharray: 7.0,7.0;"/><text fill="#000000" font-family="sans-serif" font-size="13" lengthAdjust="spacingAndGlyphs" textLength="54" x="1219" y="143.0669">contains</text><polygon fill="#000000" points="1241.5,152.1328,1244.5,158.1328,1247.5,152.1328,1241.5,152.1328" style="stroke: #000000; stroke-width: 1.0;"/><!--MD5=[1d0aef6b9b15c0b6e6a6d953fe6a947b]
link module_py to Property--><path d="M1273.7727,83.8329 C1279.7324,97.65 1286.3846,114.4246 1291,130 C1315.614,213.0638 1331.668,313.2962 1339.459,369.2725 " fill="none" id="module_py-Property" style="stroke: #A80036; stroke-width: 1.0; stroke-dasharray: 7.0,7.0;"/><text fill="#000000" font-family="sans-serif" font-size="13" lengthAdjust="spacingAndGlyphs" textLength="54" x="1297" y="143.0669">contains</text><polygon fill="#000000" points="1319.5,152.1328,1322.5,158.1328,1325.5,152.1328,1319.5,152.1328" style="stroke: #000000; stroke-width: 1.0;"/><!--MD5=[7b1eba3ae797219edf35401332f0554a]
reverse link ABC to ConnTask--><path d="M953.3659,412.5 C958.3904,412.5 963.4149,412.5 968.4393,412.5 " fill="none" id="ABC&lt;-ConnTask" style="stroke: #A80036; stroke-width: 1.0;"/><polygon fill="none" points="953.3594,419.4999,933.3594,412.5,953.3593,405.4999,953.3594,419.4999" style="stroke: #A80036; stroke-width: 1.0;"/><!--MD5=[d65990e48b5cc9de4d645a4b9604b3d1]
link conn_task_py to ConnTask--><path d="M1015,73.2745 C1015,119.7419 1015,240.312 1015,324.4065 " fill="none" id="conn_task_py-ConnTask" style="stroke: #A80036; stroke-width: 1.0; stroke-dasharray: 7.0,7.0;"/><text fill="#000000" font-family="sans-serif" font-size="13" lengthAdjust="spacingAndGlyphs" textLength="54" x="1016" y="143.0669">contains</text><polygon fill="#000000" points="1038.5,152.1328,1041.5,158.1328,1044.5,152.1328,1038.5,152.1328" style="stroke: #000000; stroke-width: 1.0;"/><text fill="#888888" font-family="sans-serif" font-size="10" lengthAdjust="spacingAndGlyphs" textLength="188" x="626.5" y="965.2822">Generated by GitUml www.gituml.com</text><!--MD5=[f70faf3703449cf4962b4b86fde2ee16]
@startuml
class ExeThrd {
    __exe_task
    __kill_sig
    __init__()
    close()
    run()
}

th.Thread <|- ExeThrd
ExeThrd *- -> ExeTask : __exe_task
class _exe_thrd_py <<module>> << (M,orchid) >> #DarkSeaGreen {
}

_exe_thrd_py .. ExeThrd : contains >
class MODI {
    _conn
    _exe_thrd
    _modules
    _topology_data
    _topology_manager
    buttons
    dials
    displays
    envs
    gyros
    irs
    leds
    mics
    modules
    motors
    networks
    speakers
    ultrasonics
    __init__()
    __init_task()
    __wait_user_code_check()
    close()
    is_not_checked()
    open()
    print_topology_map()
    recv()
    send()
    upload_user_code()
}

MODI *- -> ExeThrd : _exe_thrd
MODI *- -> TopologyManager : _topology_manager
class modi_py <<module>> << (M,orchid) >> #DarkSeaGreen {
    - - -
    reset_module_firmware()
    update_module_firmware()
    update_network_firmware()
}

modi_py .. MODI : contains >
modi_py - -> STM32FirmwareUpdater : uses
modi_py - -> ESP32FirmwareUpdater : uses
class Module {
    ERROR_STOP
    FORCED_PAUSE
    PNP_OFF
    PNP_ON
    REBOOT
    RUN
    UPDATE_FIRMWARE
    UPDATE_FIRMWARE_READY
    WARNING
    __version
    _conn
    _id
    _properties
    _uuid
    battery
    has_user_code
    id
    is_connected
    is_up_to_date
    last_updated
    module_type
    order
    position
    user_code_status
    uuid
    version
    __gt__()
    __init__()
    __lt__()
    __request_property()
    __str__()
    _get_property()
    update_property()
}

Module *- -> time.time : _properties
Module *- -> time.time : last_updated

class Property {
    last_update_time
    value
    __init__()
}

Property *- -> time.time : last_update_time
class module_py <<module>> << (M,orchid) >> #DarkSeaGreen {
    BROADCAST_ID
}

module_py .. Module : contains >
module_py .. Property : contains >
class ConnTask {
    _bus
    bus
    verbose
    __init__()
    close_conn()
    decorator()
    open_conn()
    recv()
    send()
    wait()
}

ABC <|- ConnTask
class conn_task_py <<module>> << (M,orchid) >> #DarkSeaGreen {
}

conn_task_py .. ConnTask : contains >
center footer Generated by GitUml www.gituml.com
hide empty members
@enduml

PlantUML version 1.2020.08(Sun Apr 26 14:08:22 UTC 2020)
(GPL source distribution)
Java Runtime: OpenJDK Runtime Environment
JVM: OpenJDK 64-Bit Server VM
Java Version: 1.8.0_252-heroku-b09
Operating System: Linux
Default Encoding: UTF-8
Language: en
Country: US
--></g></svg>